<?xml version="1.0" encoding="UTF-8" standalone="no"?><svg xmlns="http://www.w3.org/2000/svg" xmlns:xlink="http://www.w3.org/1999/xlink" clip-rule="evenodd" stroke-miterlimit="4.00" viewBox="0 0 1024 768"><desc>SVG generated by Keynote</desc><defs></defs><g transform="matrix(1.00, 0.00, -0.00, -1.00, 0.0, 768.0)"><g><clipPath id="clip-26"><path d="M 0.0 768.0 L 1024.0 768.0 L 1024.0 0.0 L 0.0 0.0 Z M 0.0 768.0 "></path></clipPath><g clip-path="url(#clip-26)"><image xlink:href="../../88BE00EE-B7C2-433C-BF68-EC247890C908/assets/5B9A5093AD152E37B528B63B071C6217.jpeg" width="1024.00" height="768.00" transform="matrix(1.00, 0.00, -0.00, -1.00, 0.0, 768.0)"></image></g></g><image xlink:href="5DDB5C54723D7537F37F2D8DFA625E52.png" width="342.00" height="55.00" transform="matrix(1.00, 0.00, -0.00, -1.00, 340.0, 692.0)"></image><text xml:space="preserve" font-family="HelveticaNeue-Bold" font-weight="bold" font-size="64.0" fill="#FEFFFE" transform="matrix(1.00, 0.00, -0.00, -1.00, 344.0, 644.0)">T</text><text xml:space="preserve" font-family="HelveticaNeue-Bold" font-weight="bold" font-size="64.0" fill="#FEFFFE" transform="matrix(1.00, 0.00, -0.00, -1.00, 377.2, 644.0)">r</text><text xml:space="preserve" font-family="HelveticaNeue-Bold" font-weight="bold" font-size="64.0" fill="#FEFFFE" transform="matrix(1.00, 0.00, -0.00, -1.00, 402.1, 644.0)">a</text><text xml:space="preserve" font-family="HelveticaNeue-Bold" font-weight="bold" font-size="64.0" fill="#FEFFFE" transform="matrix(1.00, 0.00, -0.00, -1.00, 438.8, 644.0)">n</text><text xml:space="preserve" font-family="HelveticaNeue-Bold" font-weight="bold" font-size="64.0" fill="#FEFFFE" transform="matrix(1.00, 0.00, -0.00, -1.00, 476.8, 644.0)">s</text><text xml:space="preserve" font-family="HelveticaNeue-Bold" font-weight="bold" font-size="64.0" fill="#FEFFFE" transform="matrix(1.00, 0.00, -0.00, -1.00, 511.2, 644.0)">l</text><text xml:space="preserve" font-family="HelveticaNeue-Bold" font-weight="bold" font-size="64.0" fill="#FEFFFE" transform="matrix(1.00, 0.00, -0.00, -1.00, 527.7, 644.0)">a</text><text xml:space="preserve" font-family="HelveticaNeue-Bold" font-weight="bold" font-size="64.0" fill="#FEFFFE" transform="matrix(1.00, 0.00, -0.00, -1.00, 564.4, 644.0)">t</text><text xml:space="preserve" font-family="HelveticaNeue-Bold" font-weight="bold" font-size="64.0" fill="#FEFFFE" transform="matrix(1.00, 0.00, -0.00, -1.00, 586.9, 644.0)">i</text><text xml:space="preserve" font-family="HelveticaNeue-Bold" font-weight="bold" font-size="64.0" fill="#FEFFFE" transform="matrix(1.00, 0.00, -0.00, -1.00, 603.5, 644.0)">o</text><text xml:space="preserve" font-family="HelveticaNeue-Bold" font-weight="bold" font-size="64.0" fill="#FEFFFE" transform="matrix(1.00, 0.00, -0.00, -1.00, 642.6, 644.0)">n</text><image xlink:href="17ACDBF7D697AC6F9C30AE51CD578EF4.png" width="17.00" height="16.00" transform="matrix(1.00, 0.00, -0.00, -1.00, 31.0, 524.0)"></image><text xml:space="preserve" font-family="HelveticaNeue-Medium" font-size="21.0" fill="#EBEAEA" transform="matrix(1.00, 0.00, -0.00, -1.00, 34.0, 510.4)">•</text><image xlink:href="7FC276995AEBBDB578F0F7D555EF96CD.png" width="269.00" height="34.00" transform="matrix(1.00, 0.00, -0.00, -1.00, 58.0, 530.0)"></image><text xml:space="preserve" font-family="HelveticaNeue-Medium" font-size="28.0" fill="#EAEAEA" transform="matrix(1.00, 0.00, -0.00, -1.00, 61.0, 508.0)">1</text><text xml:space="preserve" font-family="HelveticaNeue-Medium" font-size="28.0" fill="#EAEAEA" transform="matrix(1.00, 0.00, -0.00, -1.00, 76.6, 508.0)">8</text><text xml:space="preserve" font-family="HelveticaNeue-Medium" font-size="28.0" fill="#EAEAEA" transform="matrix(1.00, 0.00, -0.00, -1.00, 92.1, 508.0)">4</text><text xml:space="preserve" font-family="HelveticaNeue-Medium" font-size="28.0" fill="#EAEAEA" transform="matrix(1.00, 0.00, -0.00, -1.00, 107.7, 508.0)">3</text><text xml:space="preserve" font-family="HelveticaNeue-Medium" font-size="28.0" fill="#EAEAEA" transform="matrix(1.00, 0.00, -0.00, -1.00, 123.3, 508.0)">:</text><text xml:space="preserve" font-family="HelveticaNeue-Medium" font-size="28.0" fill="#EAEAEA" transform="matrix(1.00, 0.00, -0.00, -1.00, 131.1, 508.0)"> </text><text xml:space="preserve" font-family="HelveticaNeue-Medium" font-size="28.0" fill="#EAEAEA" transform="matrix(1.00, 0.00, -0.00, -1.00, 138.8, 508.0)">B</text><text xml:space="preserve" font-family="HelveticaNeue-Medium" font-size="28.0" fill="#EAEAEA" transform="matrix(1.00, 0.00, -0.00, -1.00, 158.6, 508.0)">a</text><text xml:space="preserve" font-family="HelveticaNeue-Medium" font-size="28.0" fill="#EAEAEA" transform="matrix(1.00, 0.00, -0.00, -1.00, 174.1, 508.0)">b</text><text xml:space="preserve" font-family="HelveticaNeue-Medium" font-size="28.0" fill="#EAEAEA" transform="matrix(1.00, 0.00, -0.00, -1.00, 191.2, 508.0)">b</text><text xml:space="preserve" font-family="HelveticaNeue-Medium" font-size="28.0" fill="#EAEAEA" transform="matrix(1.00, 0.00, -0.00, -1.00, 208.3, 508.0)">a</text><text xml:space="preserve" font-family="HelveticaNeue-Medium" font-size="28.0" fill="#EAEAEA" transform="matrix(1.00, 0.00, -0.00, -1.00, 223.9, 508.0)">g</text><text xml:space="preserve" font-family="HelveticaNeue-Medium" font-size="28.0" fill="#EAEAEA" transform="matrix(1.00, 0.00, -0.00, -1.00, 240.5, 508.0)">e</text><text xml:space="preserve" font-family="HelveticaNeue-Medium" font-size="28.0" fill="#EAEAEA" transform="matrix(1.00, 0.00, -0.00, -1.00, 256.1, 508.0)"> </text><text xml:space="preserve" font-family="HelveticaNeue-Medium" font-size="28.0" fill="#EAEAEA" transform="matrix(1.00, 0.00, -0.00, -1.00, 263.9, 508.0)">a</text><text xml:space="preserve" font-family="HelveticaNeue-Medium" font-size="28.0" fill="#EAEAEA" transform="matrix(1.00, 0.00, -0.00, -1.00, 279.4, 508.0)">s</text><text xml:space="preserve" font-family="HelveticaNeue-Medium" font-size="28.0" fill="#EAEAEA" transform="matrix(1.00, 0.00, -0.00, -1.00, 294.0, 508.0)">k</text><text xml:space="preserve" font-family="HelveticaNeue-Medium" font-size="28.0" fill="#EAEAEA" transform="matrix(1.00, 0.00, -0.00, -1.00, 309.0, 508.0)">s</text><text xml:space="preserve" font-family="HelveticaNeue-Medium" font-size="28.0" fill="#EAEAEA" transform="matrix(1.00, 0.00, -0.00, -1.00, 323.5, 508.0)"> </text><image xlink:href="637B7B2A21BCB7350584BD35203760B5.png" width="276.00" height="29.00" transform="matrix(1.00, 0.00, -0.00, -1.00, 59.0, 496.0)"></image><text xml:space="preserve" font-family="HelveticaNeue-Medium" font-size="28.0" fill="#EAEAEA" transform="matrix(1.00, 0.00, -0.00, -1.00, 61.0, 474.0)">L</text><text xml:space="preserve" font-family="HelveticaNeue-Medium" font-size="28.0" fill="#EAEAEA" transform="matrix(1.00, 0.00, -0.00, -1.00, 77.1, 474.0)">o</text><text xml:space="preserve" font-family="HelveticaNeue-Medium" font-size="28.0" fill="#EAEAEA" transform="matrix(1.00, 0.00, -0.00, -1.00, 93.7, 474.0)">v</text><text xml:space="preserve" font-family="HelveticaNeue-Medium" font-size="28.0" fill="#EAEAEA" transform="matrix(1.00, 0.00, -0.00, -1.00, 108.2, 474.0)">e</text><text xml:space="preserve" font-family="HelveticaNeue-Medium" font-size="28.0" fill="#EAEAEA" transform="matrix(1.00, 0.00, -0.00, -1.00, 123.8, 474.0)">l</text><text xml:space="preserve" font-family="HelveticaNeue-Medium" font-size="28.0" fill="#EAEAEA" transform="matrix(1.00, 0.00, -0.00, -1.00, 130.5, 474.0)">a</text><text xml:space="preserve" font-family="HelveticaNeue-Medium" font-size="28.0" fill="#EAEAEA" transform="matrix(1.00, 0.00, -0.00, -1.00, 146.1, 474.0)">c</text><text xml:space="preserve" font-family="HelveticaNeue-Medium" font-size="28.0" fill="#EAEAEA" transform="matrix(1.00, 0.00, -0.00, -1.00, 161.7, 474.0)">e</text><text xml:space="preserve" font-family="HelveticaNeue-Medium" font-size="28.0" fill="#EAEAEA" transform="matrix(1.00, 0.00, -0.00, -1.00, 177.2, 474.0)"> </text><text xml:space="preserve" font-family="HelveticaNeue-Medium" font-size="28.0" fill="#EAEAEA" transform="matrix(1.00, 0.00, -0.00, -1.00, 185.0, 474.0)">t</text><text xml:space="preserve" font-family="HelveticaNeue-Medium" font-size="28.0" fill="#EAEAEA" transform="matrix(1.00, 0.00, -0.00, -1.00, 194.3, 474.0)">o</text><text xml:space="preserve" font-family="HelveticaNeue-Medium" font-size="28.0" fill="#EAEAEA" transform="matrix(1.00, 0.00, -0.00, -1.00, 210.9, 474.0)"> </text><text xml:space="preserve" font-family="HelveticaNeue-Medium" font-size="28.0" fill="#EAEAEA" transform="matrix(1.00, 0.00, -0.00, -1.00, 218.7, 474.0)">t</text><text xml:space="preserve" font-family="HelveticaNeue-Medium" font-size="28.0" fill="#EAEAEA" transform="matrix(1.00, 0.00, -0.00, -1.00, 228.0, 474.0)">r</text><text xml:space="preserve" font-family="HelveticaNeue-Medium" font-size="28.0" fill="#EAEAEA" transform="matrix(1.00, 0.00, -0.00, -1.00, 237.9, 474.0)">a</text><text xml:space="preserve" font-family="HelveticaNeue-Medium" font-size="28.0" fill="#EAEAEA" transform="matrix(1.00, 0.00, -0.00, -1.00, 253.5, 474.0)">n</text><text xml:space="preserve" font-family="HelveticaNeue-Medium" font-size="28.0" fill="#EAEAEA" transform="matrix(1.00, 0.00, -0.00, -1.00, 269.5, 474.0)">s</text><text xml:space="preserve" font-family="HelveticaNeue-Medium" font-size="28.0" fill="#EAEAEA" transform="matrix(1.00, 0.00, -0.00, -1.00, 284.1, 474.0)">l</text><text xml:space="preserve" font-family="HelveticaNeue-Medium" font-size="28.0" fill="#EAEAEA" transform="matrix(1.00, 0.00, -0.00, -1.00, 290.8, 474.0)">a</text><text xml:space="preserve" font-family="HelveticaNeue-Medium" font-size="28.0" fill="#EAEAEA" transform="matrix(1.00, 0.00, -0.00, -1.00, 306.4, 474.0)">t</text><text xml:space="preserve" font-family="HelveticaNeue-Medium" font-size="28.0" fill="#EAEAEA" transform="matrix(1.00, 0.00, -0.00, -1.00, 315.7, 474.0)">e</text><text xml:space="preserve" font-family="HelveticaNeue-Medium" font-size="28.0" fill="#EAEAEA" transform="matrix(1.00, 0.00, -0.00, -1.00, 331.3, 474.0)"> </text><image xlink:href="F15673B716748C5A8C397B143FCF255A.png" width="231.00" height="34.00" transform="matrix(1.00, 0.00, -0.00, -1.00, 57.0, 462.0)"></image><text xml:space="preserve" font-family="HelveticaNeue-Medium" font-size="28.0" fill="#EAEAEA" transform="matrix(1.00, 0.00, -0.00, -1.00, 61.0, 440.0)">d</text><text xml:space="preserve" font-family="HelveticaNeue-Medium" font-size="28.0" fill="#EAEAEA" transform="matrix(1.00, 0.00, -0.00, -1.00, 78.1, 440.0)">e</text><text xml:space="preserve" font-family="HelveticaNeue-Medium" font-size="28.0" fill="#EAEAEA" transform="matrix(1.00, 0.00, -0.00, -1.00, 93.7, 440.0)">s</text><text xml:space="preserve" font-family="HelveticaNeue-Medium" font-size="28.0" fill="#EAEAEA" transform="matrix(1.00, 0.00, -0.00, -1.00, 108.2, 440.0)">c</text><text xml:space="preserve" font-family="HelveticaNeue-Medium" font-size="28.0" fill="#EAEAEA" transform="matrix(1.00, 0.00, -0.00, -1.00, 123.8, 440.0)">r</text><text xml:space="preserve" font-family="HelveticaNeue-Medium" font-size="28.0" fill="#EAEAEA" transform="matrix(1.00, 0.00, -0.00, -1.00, 133.6, 440.0)">i</text><text xml:space="preserve" font-family="HelveticaNeue-Medium" font-size="28.0" fill="#EAEAEA" transform="matrix(1.00, 0.00, -0.00, -1.00, 140.4, 440.0)">p</text><text xml:space="preserve" font-family="HelveticaNeue-Medium" font-size="28.0" fill="#EAEAEA" transform="matrix(1.00, 0.00, -0.00, -1.00, 157.5, 440.0)">t</text><text xml:space="preserve" font-family="HelveticaNeue-Medium" font-size="28.0" fill="#EAEAEA" transform="matrix(1.00, 0.00, -0.00, -1.00, 166.8, 440.0)">i</text><text xml:space="preserve" font-family="HelveticaNeue-Medium" font-size="28.0" fill="#EAEAEA" transform="matrix(1.00, 0.00, -0.00, -1.00, 173.6, 440.0)">o</text><text xml:space="preserve" font-family="HelveticaNeue-Medium" font-size="28.0" fill="#EAEAEA" transform="matrix(1.00, 0.00, -0.00, -1.00, 190.2, 440.0)">n</text><text xml:space="preserve" font-family="HelveticaNeue-Medium" font-size="28.0" fill="#EAEAEA" transform="matrix(1.00, 0.00, -0.00, -1.00, 206.2, 440.0)"> </text><text xml:space="preserve" font-family="HelveticaNeue-Medium" font-size="28.0" fill="#EAEAEA" transform="matrix(1.00, 0.00, -0.00, -1.00, 214.0, 440.0)">o</text><text xml:space="preserve" font-family="HelveticaNeue-Medium" font-size="28.0" fill="#EAEAEA" transform="matrix(1.00, 0.00, -0.00, -1.00, 230.6, 440.0)">f</text><text xml:space="preserve" font-family="HelveticaNeue-Medium" font-size="28.0" fill="#EAEAEA" transform="matrix(1.00, 0.00, -0.00, -1.00, 239.4, 440.0)"> </text><text xml:space="preserve" font-family="HelveticaNeue-Medium" font-size="28.0" fill="#EAEAEA" transform="matrix(1.00, 0.00, -0.00, -1.00, 247.2, 440.0)">h</text><text xml:space="preserve" font-family="HelveticaNeue-Medium" font-size="28.0" fill="#EAEAEA" transform="matrix(1.00, 0.00, -0.00, -1.00, 263.3, 440.0)">i</text><text xml:space="preserve" font-family="HelveticaNeue-Medium" font-size="28.0" fill="#EAEAEA" transform="matrix(1.00, 0.00, -0.00, -1.00, 270.0, 440.0)">s</text><text xml:space="preserve" font-family="HelveticaNeue-Medium" font-size="28.0" fill="#EAEAEA" transform="matrix(1.00, 0.00, -0.00, -1.00, 284.6, 440.0)"> </text><image xlink:href="8C31119E054AB46930DF1D60B45C4268.png" width="101.00" height="34.00" transform="matrix(1.00, 0.00, -0.00, -1.00, 57.0, 428.0)"></image><text xml:space="preserve" font-family="HelveticaNeue-Medium" font-size="28.0" fill="#EAEAEA" transform="matrix(1.00, 0.00, -0.00, -1.00, 61.0, 406.0)">e</text><text xml:space="preserve" font-family="HelveticaNeue-Medium" font-size="28.0" fill="#EAEAEA" transform="matrix(1.00, 0.00, -0.00, -1.00, 76.6, 406.0)">n</text><text xml:space="preserve" font-family="HelveticaNeue-Medium" font-size="28.0" fill="#EAEAEA" transform="matrix(1.00, 0.00, -0.00, -1.00, 92.6, 406.0)">g</text><text xml:space="preserve" font-family="HelveticaNeue-Medium" font-size="28.0" fill="#EAEAEA" transform="matrix(1.00, 0.00, -0.00, -1.00, 109.2, 406.0)">i</text><text xml:space="preserve" font-family="HelveticaNeue-Medium" font-size="28.0" fill="#EAEAEA" transform="matrix(1.00, 0.00, -0.00, -1.00, 116.0, 406.0)">n</text><text xml:space="preserve" font-family="HelveticaNeue-Medium" font-size="28.0" fill="#EAEAEA" transform="matrix(1.00, 0.00, -0.00, -1.00, 132.1, 406.0)">e</text><text xml:space="preserve" font-family="HelveticaNeue-Medium" font-size="28.0" fill="#EAEAEA" transform="matrix(1.00, 0.00, -0.00, -1.00, 147.6, 406.0)">.</text><text xml:space="preserve" font-family="HelveticaNeue-Medium" font-size="28.0" fill="#EAEAEA" transform="matrix(1.00, 0.00, -0.00, -1.00, 155.4, 406.0)"> </text><image xlink:href="../../CAA6780B-8885-421C-B8AB-CCDAF3889085/assets/17ACDBF7D697AC6F9C30AE51CD578EF4.png" width="17.00" height="16.00" transform="matrix(1.00, 0.00, -0.00, -1.00, 31.0, 356.0)"></image><text xml:space="preserve" font-family="HelveticaNeue-Medium" font-size="21.0" fill="#EBEAEA" transform="matrix(1.00, 0.00, -0.00, -1.00, 34.0, 342.4)">•</text><image xlink:href="23B640D12FF501832D76E81FF6D34EBD.png" width="198.00" height="29.00" transform="matrix(1.00, 0.00, -0.00, -1.00, 58.0, 362.0)"></image><text xml:space="preserve" font-family="HelveticaNeue-Medium" font-size="28.0" fill="#EAEAEA" transform="matrix(1.00, 0.00, -0.00, -1.00, 61.0, 340.0)">“</text><text xml:space="preserve" font-family="HelveticaNeue-Medium" font-size="28.0" fill="#EAEAEA" transform="matrix(1.00, 0.00, -0.00, -1.00, 73.4, 340.0)">N</text><text xml:space="preserve" font-family="HelveticaNeue-Medium" font-size="28.0" fill="#EAEAEA" transform="matrix(1.00, 0.00, -0.00, -1.00, 93.6, 340.0)">o</text><text xml:space="preserve" font-family="HelveticaNeue-Medium" font-size="28.0" fill="#EAEAEA" transform="matrix(1.00, 0.00, -0.00, -1.00, 110.3, 340.0)">t</text><text xml:space="preserve" font-family="HelveticaNeue-Medium" font-size="28.0" fill="#EAEAEA" transform="matrix(1.00, 0.00, -0.00, -1.00, 119.6, 340.0)">i</text><text xml:space="preserve" font-family="HelveticaNeue-Medium" font-size="28.0" fill="#EAEAEA" transform="matrix(1.00, 0.00, -0.00, -1.00, 126.3, 340.0)">o</text><text xml:space="preserve" font-family="HelveticaNeue-Medium" font-size="28.0" fill="#EAEAEA" transform="matrix(1.00, 0.00, -0.00, -1.00, 142.9, 340.0)">n</text><text xml:space="preserve" font-family="HelveticaNeue-Medium" font-size="28.0" fill="#EAEAEA" transform="matrix(1.00, 0.00, -0.00, -1.00, 159.0, 340.0)">s</text><text xml:space="preserve" font-family="HelveticaNeue-Medium" font-size="28.0" fill="#EAEAEA" transform="matrix(1.00, 0.00, -0.00, -1.00, 173.5, 340.0)"> </text><text xml:space="preserve" font-family="HelveticaNeue-Medium" font-size="28.0" fill="#EAEAEA" transform="matrix(1.00, 0.00, -0.00, -1.00, 181.3, 340.0)">s</text><text xml:space="preserve" font-family="HelveticaNeue-Medium" font-size="28.0" fill="#EAEAEA" transform="matrix(1.00, 0.00, -0.00, -1.00, 195.8, 340.0)">u</text><text xml:space="preserve" font-family="HelveticaNeue-Medium" font-size="28.0" fill="#EAEAEA" transform="matrix(1.00, 0.00, -0.00, -1.00, 211.9, 340.0)">r</text><text xml:space="preserve" font-family="HelveticaNeue-Medium" font-size="28.0" fill="#EAEAEA" transform="matrix(1.00, 0.00, -0.00, -1.00, 221.8, 340.0)"> </text><text xml:space="preserve" font-family="HelveticaNeue-Medium" font-size="28.0" fill="#EAEAEA" transform="matrix(1.00, 0.00, -0.00, -1.00, 229.6, 340.0)">l</text><text xml:space="preserve" font-family="HelveticaNeue-Medium" font-size="28.0" fill="#EAEAEA" transform="matrix(1.00, 0.00, -0.00, -1.00, 236.3, 340.0)">a</text><text xml:space="preserve" font-family="HelveticaNeue-Medium" font-size="28.0" fill="#EAEAEA" transform="matrix(1.00, 0.00, -0.00, -1.00, 251.9, 340.0)"> </text><image xlink:href="96D7AEA01F169CBBBDE18BFC70E896C2.png" width="298.00" height="34.00" transform="matrix(1.00, 0.00, -0.00, -1.00, 58.0, 328.0)"></image><text xml:space="preserve" font-family="HelveticaNeue-Medium" font-size="28.0" fill="#EAEAEA" transform="matrix(1.00, 0.00, -0.00, -1.00, 61.0, 306.0)">m</text><text xml:space="preserve" font-family="HelveticaNeue-Medium" font-size="28.0" fill="#EAEAEA" transform="matrix(1.00, 0.00, -0.00, -1.00, 85.4, 306.0)">a</text><text xml:space="preserve" font-family="HelveticaNeue-Medium" font-size="28.0" fill="#EAEAEA" transform="matrix(1.00, 0.00, -0.00, -1.00, 100.9, 306.0)">c</text><text xml:space="preserve" font-family="HelveticaNeue-Medium" font-size="28.0" fill="#EAEAEA" transform="matrix(1.00, 0.00, -0.00, -1.00, 116.5, 306.0)">h</text><text xml:space="preserve" font-family="HelveticaNeue-Medium" font-size="28.0" fill="#EAEAEA" transform="matrix(1.00, 0.00, -0.00, -1.00, 132.6, 306.0)">i</text><text xml:space="preserve" font-family="HelveticaNeue-Medium" font-size="28.0" fill="#EAEAEA" transform="matrix(1.00, 0.00, -0.00, -1.00, 139.3, 306.0)">n</text><text xml:space="preserve" font-family="HelveticaNeue-Medium" font-size="28.0" fill="#EAEAEA" transform="matrix(1.00, 0.00, -0.00, -1.00, 155.4, 306.0)">e</text><text xml:space="preserve" font-family="HelveticaNeue-Medium" font-size="28.0" fill="#EAEAEA" transform="matrix(1.00, 0.00, -0.00, -1.00, 171.0, 306.0)"> </text><text xml:space="preserve" font-family="HelveticaNeue-Medium" font-size="28.0" fill="#EAEAEA" transform="matrix(1.00, 0.00, -0.00, -1.00, 178.7, 306.0)">a</text><text xml:space="preserve" font-family="HelveticaNeue-Medium" font-size="28.0" fill="#EAEAEA" transform="matrix(1.00, 0.00, -0.00, -1.00, 194.3, 306.0)">n</text><text xml:space="preserve" font-family="HelveticaNeue-Medium" font-size="28.0" fill="#EAEAEA" transform="matrix(1.00, 0.00, -0.00, -1.00, 210.4, 306.0)">a</text><text xml:space="preserve" font-family="HelveticaNeue-Medium" font-size="28.0" fill="#EAEAEA" transform="matrix(1.00, 0.00, -0.00, -1.00, 225.9, 306.0)">l</text><text xml:space="preserve" font-family="HelveticaNeue-Medium" font-size="28.0" fill="#EAEAEA" transform="matrix(1.00, 0.00, -0.00, -1.00, 232.7, 306.0)">y</text><text xml:space="preserve" font-family="HelveticaNeue-Medium" font-size="28.0" fill="#EAEAEA" transform="matrix(1.00, 0.00, -0.00, -1.00, 247.2, 306.0)">t</text><text xml:space="preserve" font-family="HelveticaNeue-Medium" font-size="28.0" fill="#EAEAEA" transform="matrix(1.00, 0.00, -0.00, -1.00, 256.6, 306.0)">i</text><text xml:space="preserve" font-family="HelveticaNeue-Medium" font-size="28.0" fill="#EAEAEA" transform="matrix(1.00, 0.00, -0.00, -1.00, 263.3, 306.0)">q</text><text xml:space="preserve" font-family="HelveticaNeue-Medium" font-size="28.0" fill="#EAEAEA" transform="matrix(1.00, 0.00, -0.00, -1.00, 280.4, 306.0)">u</text><text xml:space="preserve" font-family="HelveticaNeue-Medium" font-size="28.0" fill="#EAEAEA" transform="matrix(1.00, 0.00, -0.00, -1.00, 296.5, 306.0)">e</text><text xml:space="preserve" font-family="HelveticaNeue-Medium" font-size="28.0" fill="#EAEAEA" transform="matrix(1.00, 0.00, -0.00, -1.00, 312.0, 306.0)"> </text><text xml:space="preserve" font-family="HelveticaNeue-Medium" font-size="28.0" fill="#EAEAEA" transform="matrix(1.00, 0.00, -0.00, -1.00, 319.8, 306.0)">d</text><text xml:space="preserve" font-family="HelveticaNeue-Medium" font-size="28.0" fill="#EAEAEA" transform="matrix(1.00, 0.00, -0.00, -1.00, 336.9, 306.0)">e</text><text xml:space="preserve" font-family="HelveticaNeue-Medium" font-size="28.0" fill="#EAEAEA" transform="matrix(1.00, 0.00, -0.00, -1.00, 352.5, 306.0)"> </text><image xlink:href="261F7B327F9E79F61BECEFB39BE7B68D.png" width="230.00" height="35.00" transform="matrix(1.00, 0.00, -0.00, -1.00, 58.0, 295.0)"></image><text xml:space="preserve" font-family="HelveticaNeue-Medium" font-size="28.0" fill="#EAEAEA" transform="matrix(1.00, 0.00, -0.00, -1.00, 61.0, 272.0)">C</text><text xml:space="preserve" font-family="HelveticaNeue-Medium" font-size="28.0" fill="#EAEAEA" transform="matrix(1.00, 0.00, -0.00, -1.00, 81.2, 272.0)">h</text><text xml:space="preserve" font-family="HelveticaNeue-Medium" font-size="28.0" fill="#EAEAEA" transform="matrix(1.00, 0.00, -0.00, -1.00, 97.3, 272.0)">a</text><text xml:space="preserve" font-family="HelveticaNeue-Medium" font-size="28.0" fill="#EAEAEA" transform="matrix(1.00, 0.00, -0.00, -1.00, 112.9, 272.0)">r</text><text xml:space="preserve" font-family="HelveticaNeue-Medium" font-size="28.0" fill="#EAEAEA" transform="matrix(1.00, 0.00, -0.00, -1.00, 122.7, 272.0)">l</text><text xml:space="preserve" font-family="HelveticaNeue-Medium" font-size="28.0" fill="#EAEAEA" transform="matrix(1.00, 0.00, -0.00, -1.00, 129.5, 272.0)">e</text><text xml:space="preserve" font-family="HelveticaNeue-Medium" font-size="28.0" fill="#EAEAEA" transform="matrix(1.00, 0.00, -0.00, -1.00, 145.0, 272.0)">s</text><text xml:space="preserve" font-family="HelveticaNeue-Medium" font-size="28.0" fill="#EAEAEA" transform="matrix(1.00, 0.00, -0.00, -1.00, 159.6, 272.0)"> </text><text xml:space="preserve" font-family="HelveticaNeue-Medium" font-size="28.0" fill="#EAEAEA" transform="matrix(1.00, 0.00, -0.00, -1.00, 167.3, 272.0)">B</text><text xml:space="preserve" font-family="HelveticaNeue-Medium" font-size="28.0" fill="#EAEAEA" transform="matrix(1.00, 0.00, -0.00, -1.00, 187.1, 272.0)">a</text><text xml:space="preserve" font-family="HelveticaNeue-Medium" font-size="28.0" fill="#EAEAEA" transform="matrix(1.00, 0.00, -0.00, -1.00, 202.6, 272.0)">b</text><text xml:space="preserve" font-family="HelveticaNeue-Medium" font-size="28.0" fill="#EAEAEA" transform="matrix(1.00, 0.00, -0.00, -1.00, 219.7, 272.0)">b</text><text xml:space="preserve" font-family="HelveticaNeue-Medium" font-size="28.0" fill="#EAEAEA" transform="matrix(1.00, 0.00, -0.00, -1.00, 236.8, 272.0)">a</text><text xml:space="preserve" font-family="HelveticaNeue-Medium" font-size="28.0" fill="#EAEAEA" transform="matrix(1.00, 0.00, -0.00, -1.00, 252.4, 272.0)">g</text><text xml:space="preserve" font-family="HelveticaNeue-Medium" font-size="28.0" fill="#EAEAEA" transform="matrix(1.00, 0.00, -0.00, -1.00, 269.0, 272.0)">e</text><image xlink:href="470198DC25964CC49A28171D6C8D45A1.png" width="18.00" height="16.00" transform="matrix(1.00, 0.00, -0.00, -1.00, 282.0, 294.0)"></image><text xml:space="preserve" font-family="HelveticaNeue-Medium" font-size="28.0" fill="#EAEAEA" transform="matrix(1.00, 0.00, -0.00, -1.00, 284.6, 272.0)">”</text><text xml:space="preserve" font-family="HelveticaNeue-Medium" font-size="28.0" fill="#EAEAEA" transform="matrix(1.00, 0.00, -0.00, -1.00, 297.0, 272.0)"> </text><image xlink:href="../../CAA6780B-8885-421C-B8AB-CCDAF3889085/assets/17ACDBF7D697AC6F9C30AE51CD578EF4.png" width="17.00" height="16.00" transform="matrix(1.00, 0.00, -0.00, -1.00, 58.0, 222.0)"></image><text xml:space="preserve" font-family="HelveticaNeue-Medium" font-size="21.0" fill="#EBEAEA" transform="matrix(1.00, 0.00, -0.00, -1.00, 61.0, 208.4)">•</text><image xlink:href="321BEF4A824541F6D03A5796C44F4143.png" width="181.00" height="35.00" transform="matrix(1.00, 0.00, -0.00, -1.00, 85.0, 229.0)"></image><text xml:space="preserve" font-family="HelveticaNeue-Medium" font-size="28.0" fill="#EAEAEA" transform="matrix(1.00, 0.00, -0.00, -1.00, 88.0, 206.0)">(</text><text xml:space="preserve" font-family="HelveticaNeue-Medium" font-size="28.0" fill="#EAEAEA" transform="matrix(1.00, 0.00, -0.00, -1.00, 95.8, 206.0)">“</text><text xml:space="preserve" font-family="HelveticaNeue-Medium" font-size="28.0" fill="#EAEAEA" transform="matrix(1.00, 0.00, -0.00, -1.00, 108.2, 206.0)">E</text><text xml:space="preserve" font-family="HelveticaNeue-Medium" font-size="28.0" fill="#EAEAEA" transform="matrix(1.00, 0.00, -0.00, -1.00, 125.9, 206.0)">l</text><text xml:space="preserve" font-family="HelveticaNeue-Medium" font-size="28.0" fill="#EAEAEA" transform="matrix(1.00, 0.00, -0.00, -1.00, 132.6, 206.0)">e</text><text xml:space="preserve" font-family="HelveticaNeue-Medium" font-size="28.0" fill="#EAEAEA" transform="matrix(1.00, 0.00, -0.00, -1.00, 148.2, 206.0)">m</text><text xml:space="preserve" font-family="HelveticaNeue-Medium" font-size="28.0" fill="#EAEAEA" transform="matrix(1.00, 0.00, -0.00, -1.00, 172.5, 206.0)">e</text><text xml:space="preserve" font-family="HelveticaNeue-Medium" font-size="28.0" fill="#EAEAEA" transform="matrix(1.00, 0.00, -0.00, -1.00, 188.1, 206.0)">n</text><text xml:space="preserve" font-family="HelveticaNeue-Medium" font-size="28.0" fill="#EAEAEA" transform="matrix(1.00, 0.00, -0.00, -1.00, 204.2, 206.0)">t</text><text xml:space="preserve" font-family="HelveticaNeue-Medium" font-size="28.0" fill="#EAEAEA" transform="matrix(1.00, 0.00, -0.00, -1.00, 213.5, 206.0)">s</text><text xml:space="preserve" font-family="HelveticaNeue-Medium" font-size="28.0" fill="#EAEAEA" transform="matrix(1.00, 0.00, -0.00, -1.00, 228.0, 206.0)"> </text><text xml:space="preserve" font-family="HelveticaNeue-Medium" font-size="28.0" fill="#EAEAEA" transform="matrix(1.00, 0.00, -0.00, -1.00, 235.8, 206.0)">o</text><text xml:space="preserve" font-family="HelveticaNeue-Medium" font-size="28.0" fill="#EAEAEA" transform="matrix(1.00, 0.00, -0.00, -1.00, 252.4, 206.0)">f</text><text xml:space="preserve" font-family="HelveticaNeue-Medium" font-size="28.0" fill="#EAEAEA" transform="matrix(1.00, 0.00, -0.00, -1.00, 261.2, 206.0)"> </text><image xlink:href="270A98E8415A4E94D03E8837D666262C.png" width="251.00" height="35.00" transform="matrix(1.00, 0.00, -0.00, -1.00, 85.0, 195.0)"></image><text xml:space="preserve" font-family="HelveticaNeue-Medium" font-size="28.0" fill="#EAEAEA" transform="matrix(1.00, 0.00, -0.00, -1.00, 88.0, 172.0)">C</text><text xml:space="preserve" font-family="HelveticaNeue-Medium" font-size="28.0" fill="#EAEAEA" transform="matrix(1.00, 0.00, -0.00, -1.00, 108.2, 172.0)">h</text><text xml:space="preserve" font-family="HelveticaNeue-Medium" font-size="28.0" fill="#EAEAEA" transform="matrix(1.00, 0.00, -0.00, -1.00, 124.3, 172.0)">a</text><text xml:space="preserve" font-family="HelveticaNeue-Medium" font-size="28.0" fill="#EAEAEA" transform="matrix(1.00, 0.00, -0.00, -1.00, 139.9, 172.0)">r</text><text xml:space="preserve" font-family="HelveticaNeue-Medium" font-size="28.0" fill="#EAEAEA" transform="matrix(1.00, 0.00, -0.00, -1.00, 149.7, 172.0)">l</text><text xml:space="preserve" font-family="HelveticaNeue-Medium" font-size="28.0" fill="#EAEAEA" transform="matrix(1.00, 0.00, -0.00, -1.00, 156.5, 172.0)">e</text><text xml:space="preserve" font-family="HelveticaNeue-Medium" font-size="28.0" fill="#EAEAEA" transform="matrix(1.00, 0.00, -0.00, -1.00, 172.0, 172.0)">s</text><text xml:space="preserve" font-family="HelveticaNeue-Medium" font-size="28.0" fill="#EAEAEA" transform="matrix(1.00, 0.00, -0.00, -1.00, 186.6, 172.0)"> </text><text xml:space="preserve" font-family="HelveticaNeue-Medium" font-size="28.0" fill="#EAEAEA" transform="matrix(1.00, 0.00, -0.00, -1.00, 194.3, 172.0)">B</text><text xml:space="preserve" font-family="HelveticaNeue-Medium" font-size="28.0" fill="#EAEAEA" transform="matrix(1.00, 0.00, -0.00, -1.00, 214.1, 172.0)">a</text><text xml:space="preserve" font-family="HelveticaNeue-Medium" font-size="28.0" fill="#EAEAEA" transform="matrix(1.00, 0.00, -0.00, -1.00, 229.6, 172.0)">b</text><text xml:space="preserve" font-family="HelveticaNeue-Medium" font-size="28.0" fill="#EAEAEA" transform="matrix(1.00, 0.00, -0.00, -1.00, 246.7, 172.0)">b</text><text xml:space="preserve" font-family="HelveticaNeue-Medium" font-size="28.0" fill="#EAEAEA" transform="matrix(1.00, 0.00, -0.00, -1.00, 263.8, 172.0)">a</text><text xml:space="preserve" font-family="HelveticaNeue-Medium" font-size="28.0" fill="#EAEAEA" transform="matrix(1.00, 0.00, -0.00, -1.00, 279.4, 172.0)">g</text><text xml:space="preserve" font-family="HelveticaNeue-Medium" font-size="28.0" fill="#EAEAEA" transform="matrix(1.00, 0.00, -0.00, -1.00, 296.0, 172.0)">e</text><text xml:space="preserve" font-family="HelveticaNeue-Medium" font-size="28.0" fill="#EAEAEA" transform="matrix(1.00, 0.00, -0.00, -1.00, 311.6, 172.0)">’</text><text xml:space="preserve" font-family="HelveticaNeue-Medium" font-size="28.0" fill="#EAEAEA" transform="matrix(1.00, 0.00, -0.00, -1.00, 317.3, 172.0)">s</text><text xml:space="preserve" font-family="HelveticaNeue-Medium" font-size="28.0" fill="#EAEAEA" transform="matrix(1.00, 0.00, -0.00, -1.00, 331.8, 172.0)"> </text><image xlink:href="65A27CC0E52C47F0C5459871EDD7307B.png" width="272.00" height="35.00" transform="matrix(1.00, 0.00, -0.00, -1.00, 83.0, 161.0)"></image><text xml:space="preserve" font-family="HelveticaNeue-Medium" font-size="28.0" fill="#EAEAEA" transform="matrix(1.00, 0.00, -0.00, -1.00, 88.0, 138.0)">A</text><text xml:space="preserve" font-family="HelveticaNeue-Medium" font-size="28.0" fill="#EAEAEA" transform="matrix(1.00, 0.00, -0.00, -1.00, 106.7, 138.0)">n</text><text xml:space="preserve" font-family="HelveticaNeue-Medium" font-size="28.0" fill="#EAEAEA" transform="matrix(1.00, 0.00, -0.00, -1.00, 122.7, 138.0)">a</text><text xml:space="preserve" font-family="HelveticaNeue-Medium" font-size="28.0" fill="#EAEAEA" transform="matrix(1.00, 0.00, -0.00, -1.00, 138.3, 138.0)">l</text><text xml:space="preserve" font-family="HelveticaNeue-Medium" font-size="28.0" fill="#EAEAEA" transform="matrix(1.00, 0.00, -0.00, -1.00, 145.1, 138.0)">y</text><text xml:space="preserve" font-family="HelveticaNeue-Medium" font-size="28.0" fill="#EAEAEA" transform="matrix(1.00, 0.00, -0.00, -1.00, 159.6, 138.0)">t</text><text xml:space="preserve" font-family="HelveticaNeue-Medium" font-size="28.0" fill="#EAEAEA" transform="matrix(1.00, 0.00, -0.00, -1.00, 168.9, 138.0)">i</text><text xml:space="preserve" font-family="HelveticaNeue-Medium" font-size="28.0" fill="#EAEAEA" transform="matrix(1.00, 0.00, -0.00, -1.00, 175.7, 138.0)">c</text><text xml:space="preserve" font-family="HelveticaNeue-Medium" font-size="28.0" fill="#EAEAEA" transform="matrix(1.00, 0.00, -0.00, -1.00, 191.2, 138.0)">a</text><text xml:space="preserve" font-family="HelveticaNeue-Medium" font-size="28.0" fill="#EAEAEA" transform="matrix(1.00, 0.00, -0.00, -1.00, 206.8, 138.0)">l</text><text xml:space="preserve" font-family="HelveticaNeue-Medium" font-size="28.0" fill="#EAEAEA" transform="matrix(1.00, 0.00, -0.00, -1.00, 213.6, 138.0)"> </text><text xml:space="preserve" font-family="HelveticaNeue-Medium" font-size="28.0" fill="#EAEAEA" transform="matrix(1.00, 0.00, -0.00, -1.00, 221.3, 138.0)">M</text><text xml:space="preserve" font-family="HelveticaNeue-Medium" font-size="28.0" fill="#EAEAEA" transform="matrix(1.00, 0.00, -0.00, -1.00, 246.2, 138.0)">a</text><text xml:space="preserve" font-family="HelveticaNeue-Medium" font-size="28.0" fill="#EAEAEA" transform="matrix(1.00, 0.00, -0.00, -1.00, 261.8, 138.0)">c</text><text xml:space="preserve" font-family="HelveticaNeue-Medium" font-size="28.0" fill="#EAEAEA" transform="matrix(1.00, 0.00, -0.00, -1.00, 277.4, 138.0)">h</text><text xml:space="preserve" font-family="HelveticaNeue-Medium" font-size="28.0" fill="#EAEAEA" transform="matrix(1.00, 0.00, -0.00, -1.00, 293.4, 138.0)">i</text><text xml:space="preserve" font-family="HelveticaNeue-Medium" font-size="28.0" fill="#EAEAEA" transform="matrix(1.00, 0.00, -0.00, -1.00, 300.2, 138.0)">n</text><text xml:space="preserve" font-family="HelveticaNeue-Medium" font-size="28.0" fill="#EAEAEA" transform="matrix(1.00, 0.00, -0.00, -1.00, 316.3, 138.0)">e</text><text xml:space="preserve" font-family="HelveticaNeue-Medium" font-size="28.0" fill="#EAEAEA" transform="matrix(1.00, 0.00, -0.00, -1.00, 331.8, 138.0)">”</text><text xml:space="preserve" font-family="HelveticaNeue-Medium" font-size="28.0" fill="#EAEAEA" transform="matrix(1.00, 0.00, -0.00, -1.00, 344.3, 138.0)">)</text><image xlink:href="4F170CD300415D511A22D62DF5164DDA.png" width="606.00" height="494.00" transform="matrix(1.00, 0.00, -0.00, -1.00, 379.0, 539.0)"></image></g></svg>