<?xml version="1.0" encoding="UTF-8" standalone="no"?><svg xmlns="http://www.w3.org/2000/svg" xmlns:xlink="http://www.w3.org/1999/xlink" clip-rule="evenodd" stroke-miterlimit="4.00" viewBox="0 0 1024 768"><desc>SVG generated by Keynote</desc><defs></defs><g transform="matrix(1.00, 0.00, -0.00, -1.00, 0.0, 768.0)"><g><clipPath id="clip-28"><path d="M 0.0 768.0 L 1024.0 768.0 L 1024.0 0.0 L 0.0 0.0 Z M 0.0 768.0 "></path></clipPath><g clip-path="url(#clip-28)"><image xlink:href="../../88BE00EE-B7C2-433C-BF68-EC247890C908/assets/5B9A5093AD152E37B528B63B071C6217.jpeg" width="1024.00" height="768.00" transform="matrix(1.00, 0.00, -0.00, -1.00, 0.0, 768.0)"></image></g></g><image xlink:href="../../88BE00EE-B7C2-433C-BF68-EC247890C908/assets/012F0061DB496EBA2EEF88A197CEEE06.png" width="480.00" height="721.00" transform="matrix(1.00, 0.00, -0.00, -1.00, 504.0, 745.0)" opacity="0.70"></image><g><clipPath id="clip-29"><path d="M 524.0 735.0 L 964.0 735.0 L 964.0 54.0 L 524.0 54.0 Z M 524.0 735.0 "></path></clipPath><g clip-path="url(#clip-29)"><image xlink:href="92B252F9A5B6BF8CC813E4468C16FC19.png" width="380.00" height="600.00" transform="matrix(1.16, 0.00, -0.00, -1.16, 524.0, 742.0)"></image></g></g><image xlink:href="1C8E692D336D31C411EBA3A0F76578D5.png" width="265.00" height="47.00" transform="matrix(1.00, 0.00, -0.00, -1.00, 141.0, 492.0)"></image><text xml:space="preserve" font-family="HelveticaNeue-Bold" font-weight="bold" font-size="52.0" fill="#FEFFFE" transform="matrix(1.00, 0.00, -0.00, -1.00, 142.0, 452.0)">L</text><text xml:space="preserve" font-family="HelveticaNeue-Bold" font-weight="bold" font-size="52.0" fill="#FEFFFE" transform="matrix(1.00, 0.00, -0.00, -1.00, 172.8, 452.0)">o</text><text xml:space="preserve" font-family="HelveticaNeue-Bold" font-weight="bold" font-size="52.0" fill="#FEFFFE" transform="matrix(1.00, 0.00, -0.00, -1.00, 204.6, 452.0)">v</text><text xml:space="preserve" font-family="HelveticaNeue-Bold" font-weight="bold" font-size="52.0" fill="#FEFFFE" transform="matrix(1.00, 0.00, -0.00, -1.00, 231.6, 452.0)">e</text><text xml:space="preserve" font-family="HelveticaNeue-Bold" font-weight="bold" font-size="52.0" fill="#FEFFFE" transform="matrix(1.00, 0.00, -0.00, -1.00, 261.5, 452.0)">l</text><text xml:space="preserve" font-family="HelveticaNeue-Bold" font-weight="bold" font-size="52.0" fill="#FEFFFE" transform="matrix(1.00, 0.00, -0.00, -1.00, 274.9, 452.0)">a</text><text xml:space="preserve" font-family="HelveticaNeue-Bold" font-weight="bold" font-size="52.0" fill="#FEFFFE" transform="matrix(1.00, 0.00, -0.00, -1.00, 304.8, 452.0)">c</text><text xml:space="preserve" font-family="HelveticaNeue-Bold" font-weight="bold" font-size="52.0" fill="#FEFFFE" transform="matrix(1.00, 0.00, -0.00, -1.00, 334.6, 452.0)">e</text><text xml:space="preserve" font-family="HelveticaNeue-Bold" font-weight="bold" font-size="52.0" fill="#FEFFFE" transform="matrix(1.00, 0.00, -0.00, -1.00, 364.5, 452.0)">’</text><text xml:space="preserve" font-family="HelveticaNeue-Bold" font-weight="bold" font-size="52.0" fill="#FEFFFE" transform="matrix(1.00, 0.00, -0.00, -1.00, 375.1, 452.0)">s</text><text xml:space="preserve" font-family="HelveticaNeue-Bold" font-weight="bold" font-size="52.0" fill="#FEFFFE" transform="matrix(1.00, 0.00, -0.00, -1.00, 403.0, 452.0)"> </text><image xlink:href="3833713100534B01B3F2EFC46D7B7FE1.png" width="150.00" height="47.00" transform="matrix(1.00, 0.00, -0.00, -1.00, 198.0, 428.0)"></image><text xml:space="preserve" font-family="HelveticaNeue-Bold" font-weight="bold" font-size="52.0" fill="#FEFFFE" transform="matrix(1.00, 0.00, -0.00, -1.00, 199.0, 388.0)">N</text><text xml:space="preserve" font-family="HelveticaNeue-Bold" font-weight="bold" font-size="52.0" fill="#FEFFFE" transform="matrix(1.00, 0.00, -0.00, -1.00, 237.5, 388.0)">o</text><text xml:space="preserve" font-family="HelveticaNeue-Bold" font-weight="bold" font-size="52.0" fill="#FEFFFE" transform="matrix(1.00, 0.00, -0.00, -1.00, 269.3, 388.0)">t</text><text xml:space="preserve" font-family="HelveticaNeue-Bold" font-weight="bold" font-size="52.0" fill="#FEFFFE" transform="matrix(1.00, 0.00, -0.00, -1.00, 287.6, 388.0)">e</text><text xml:space="preserve" font-family="HelveticaNeue-Bold" font-weight="bold" font-size="52.0" fill="#FEFFFE" transform="matrix(1.00, 0.00, -0.00, -1.00, 317.5, 388.0)">s</text><image xlink:href="2EA9A61C00D08A7AD998F6EFD1E5BC33.png" width="250.00" height="31.00" transform="matrix(1.00, 0.00, -0.00, -1.00, 102.0, 348.0)"></image><text xml:space="preserve" font-family="HelveticaNeue-Medium" font-size="24.0" fill="#FEFFFE" transform="matrix(1.00, 0.00, -0.00, -1.00, 105.0, 328.0)">“</text><text xml:space="preserve" font-family="HelveticaNeue-Medium" font-size="24.0" fill="#FEFFFE" transform="matrix(1.00, 0.00, -0.00, -1.00, 115.7, 328.0)">t</text><text xml:space="preserve" font-family="HelveticaNeue-Medium" font-size="24.0" fill="#FEFFFE" transform="matrix(1.00, 0.00, -0.00, -1.00, 123.6, 328.0)">h</text><text xml:space="preserve" font-family="HelveticaNeue-Medium" font-size="24.0" fill="#FEFFFE" transform="matrix(1.00, 0.00, -0.00, -1.00, 137.4, 328.0)">e</text><text xml:space="preserve" font-family="HelveticaNeue-Medium" font-size="24.0" fill="#FEFFFE" transform="matrix(1.00, 0.00, -0.00, -1.00, 150.8, 328.0)"> </text><text xml:space="preserve" font-family="HelveticaNeue-Medium" font-size="24.0" fill="#FEFFFE" transform="matrix(1.00, 0.00, -0.00, -1.00, 157.4, 328.0)">A</text><text xml:space="preserve" font-family="HelveticaNeue-Medium" font-size="24.0" fill="#FEFFFE" transform="matrix(1.00, 0.00, -0.00, -1.00, 173.4, 328.0)">n</text><text xml:space="preserve" font-family="HelveticaNeue-Medium" font-size="24.0" fill="#FEFFFE" transform="matrix(1.00, 0.00, -0.00, -1.00, 187.2, 328.0)">a</text><text xml:space="preserve" font-family="HelveticaNeue-Medium" font-size="24.0" fill="#FEFFFE" transform="matrix(1.00, 0.00, -0.00, -1.00, 200.6, 328.0)">l</text><text xml:space="preserve" font-family="HelveticaNeue-Medium" font-size="24.0" fill="#FEFFFE" transform="matrix(1.00, 0.00, -0.00, -1.00, 206.4, 328.0)">y</text><text xml:space="preserve" font-family="HelveticaNeue-Medium" font-size="24.0" fill="#FEFFFE" transform="matrix(1.00, 0.00, -0.00, -1.00, 218.8, 328.0)">t</text><text xml:space="preserve" font-family="HelveticaNeue-Medium" font-size="24.0" fill="#FEFFFE" transform="matrix(1.00, 0.00, -0.00, -1.00, 226.8, 328.0)">i</text><text xml:space="preserve" font-family="HelveticaNeue-Medium" font-size="24.0" fill="#FEFFFE" transform="matrix(1.00, 0.00, -0.00, -1.00, 232.6, 328.0)">c</text><text xml:space="preserve" font-family="HelveticaNeue-Medium" font-size="24.0" fill="#FEFFFE" transform="matrix(1.00, 0.00, -0.00, -1.00, 245.9, 328.0)">a</text><text xml:space="preserve" font-family="HelveticaNeue-Medium" font-size="24.0" fill="#FEFFFE" transform="matrix(1.00, 0.00, -0.00, -1.00, 259.3, 328.0)">l</text><text xml:space="preserve" font-family="HelveticaNeue-Medium" font-size="24.0" fill="#FEFFFE" transform="matrix(1.00, 0.00, -0.00, -1.00, 265.1, 328.0)"> </text><text xml:space="preserve" font-family="HelveticaNeue-Medium" font-size="24.0" fill="#FEFFFE" transform="matrix(1.00, 0.00, -0.00, -1.00, 271.7, 328.0)">E</text><text xml:space="preserve" font-family="HelveticaNeue-Medium" font-size="24.0" fill="#FEFFFE" transform="matrix(1.00, 0.00, -0.00, -1.00, 286.8, 328.0)">n</text><text xml:space="preserve" font-family="HelveticaNeue-Medium" font-size="24.0" fill="#FEFFFE" transform="matrix(1.00, 0.00, -0.00, -1.00, 300.6, 328.0)">g</text><text xml:space="preserve" font-family="HelveticaNeue-Medium" font-size="24.0" fill="#FEFFFE" transform="matrix(1.00, 0.00, -0.00, -1.00, 314.9, 328.0)">i</text><text xml:space="preserve" font-family="HelveticaNeue-Medium" font-size="24.0" fill="#FEFFFE" transform="matrix(1.00, 0.00, -0.00, -1.00, 320.6, 328.0)">n</text><text xml:space="preserve" font-family="HelveticaNeue-Medium" font-size="24.0" fill="#FEFFFE" transform="matrix(1.00, 0.00, -0.00, -1.00, 334.4, 328.0)">e</text><text xml:space="preserve" font-family="HelveticaNeue-Medium" font-size="24.0" fill="#FEFFFE" transform="matrix(1.00, 0.00, -0.00, -1.00, 347.8, 328.0)"> </text><image xlink:href="3210244664D3B4D48773FE9FFF046F26.png" width="92.00" height="22.00" transform="matrix(1.00, 0.00, -0.00, -1.00, 350.0, 343.0)"></image><text xml:space="preserve" font-family="HelveticaNeue-Medium" font-size="24.0" fill="#FEFFFE" transform="matrix(1.00, 0.00, -0.00, -1.00, 354.4, 328.0)">w</text><text xml:space="preserve" font-family="HelveticaNeue-Medium" font-size="24.0" fill="#FEFFFE" transform="matrix(1.00, 0.00, -0.00, -1.00, 373.1, 328.0)">e</text><text xml:space="preserve" font-family="HelveticaNeue-Medium" font-size="24.0" fill="#FEFFFE" transform="matrix(1.00, 0.00, -0.00, -1.00, 386.4, 328.0)">a</text><text xml:space="preserve" font-family="HelveticaNeue-Medium" font-size="24.0" fill="#FEFFFE" transform="matrix(1.00, 0.00, -0.00, -1.00, 399.8, 328.0)">v</text><text xml:space="preserve" font-family="HelveticaNeue-Medium" font-size="24.0" fill="#FEFFFE" transform="matrix(1.00, 0.00, -0.00, -1.00, 412.2, 328.0)">e</text><text xml:space="preserve" font-family="HelveticaNeue-Medium" font-size="24.0" fill="#FEFFFE" transform="matrix(1.00, 0.00, -0.00, -1.00, 425.6, 328.0)">s</text><text xml:space="preserve" font-family="HelveticaNeue-Medium" font-size="24.0" fill="#FEFFFE" transform="matrix(1.00, 0.00, -0.00, -1.00, 438.0, 328.0)"> </text><image xlink:href="61DD6F33F9D41F93259A9A29AC2DC887.png" width="337.00" height="31.00" transform="matrix(1.00, 0.00, -0.00, -1.00, 103.0, 319.0)"></image><text xml:space="preserve" font-family="HelveticaNeue-Medium" font-size="24.0" fill="#FEFFFE" transform="matrix(1.00, 0.00, -0.00, -1.00, 107.0, 299.0)">a</text><text xml:space="preserve" font-family="HelveticaNeue-Medium" font-size="24.0" fill="#FEFFFE" transform="matrix(1.00, 0.00, -0.00, -1.00, 120.3, 299.0)">l</text><text xml:space="preserve" font-family="HelveticaNeue-Medium" font-size="24.0" fill="#FEFFFE" transform="matrix(1.00, 0.00, -0.00, -1.00, 126.1, 299.0)">g</text><text xml:space="preserve" font-family="HelveticaNeue-Medium" font-size="24.0" fill="#FEFFFE" transform="matrix(1.00, 0.00, -0.00, -1.00, 140.4, 299.0)">e</text><text xml:space="preserve" font-family="HelveticaNeue-Medium" font-size="24.0" fill="#FEFFFE" transform="matrix(1.00, 0.00, -0.00, -1.00, 153.7, 299.0)">b</text><text xml:space="preserve" font-family="HelveticaNeue-Medium" font-size="24.0" fill="#FEFFFE" transform="matrix(1.00, 0.00, -0.00, -1.00, 168.4, 299.0)">r</text><text xml:space="preserve" font-family="HelveticaNeue-Medium" font-size="24.0" fill="#FEFFFE" transform="matrix(1.00, 0.00, -0.00, -1.00, 176.8, 299.0)">a</text><text xml:space="preserve" font-family="HelveticaNeue-Medium" font-size="24.0" fill="#FEFFFE" transform="matrix(1.00, 0.00, -0.00, -1.00, 190.2, 299.0)">i</text><text xml:space="preserve" font-family="HelveticaNeue-Medium" font-size="24.0" fill="#FEFFFE" transform="matrix(1.00, 0.00, -0.00, -1.00, 195.9, 299.0)">c</text><text xml:space="preserve" font-family="HelveticaNeue-Medium" font-size="24.0" fill="#FEFFFE" transform="matrix(1.00, 0.00, -0.00, -1.00, 209.3, 299.0)"> </text><text xml:space="preserve" font-family="HelveticaNeue-Medium" font-size="24.0" fill="#FEFFFE" transform="matrix(1.00, 0.00, -0.00, -1.00, 216.0, 299.0)">p</text><text xml:space="preserve" font-family="HelveticaNeue-Medium" font-size="24.0" fill="#FEFFFE" transform="matrix(1.00, 0.00, -0.00, -1.00, 230.6, 299.0)">a</text><text xml:space="preserve" font-family="HelveticaNeue-Medium" font-size="24.0" fill="#FEFFFE" transform="matrix(1.00, 0.00, -0.00, -1.00, 244.0, 299.0)">t</text><text xml:space="preserve" font-family="HelveticaNeue-Medium" font-size="24.0" fill="#FEFFFE" transform="matrix(1.00, 0.00, -0.00, -1.00, 252.0, 299.0)">t</text><text xml:space="preserve" font-family="HelveticaNeue-Medium" font-size="24.0" fill="#FEFFFE" transform="matrix(1.00, 0.00, -0.00, -1.00, 260.0, 299.0)">e</text><text xml:space="preserve" font-family="HelveticaNeue-Medium" font-size="24.0" fill="#FEFFFE" transform="matrix(1.00, 0.00, -0.00, -1.00, 273.3, 299.0)">r</text><text xml:space="preserve" font-family="HelveticaNeue-Medium" font-size="24.0" fill="#FEFFFE" transform="matrix(1.00, 0.00, -0.00, -1.00, 282.2, 299.0)">n</text><text xml:space="preserve" font-family="HelveticaNeue-Medium" font-size="24.0" fill="#FEFFFE" transform="matrix(1.00, 0.00, -0.00, -1.00, 296.0, 299.0)">s</text><text xml:space="preserve" font-family="HelveticaNeue-Medium" font-size="24.0" fill="#FEFFFE" transform="matrix(1.00, 0.00, -0.00, -1.00, 308.4, 299.0)">,</text><text xml:space="preserve" font-family="HelveticaNeue-Medium" font-size="24.0" fill="#FEFFFE" transform="matrix(1.00, 0.00, -0.00, -1.00, 315.1, 299.0)"> </text><text xml:space="preserve" font-family="HelveticaNeue-Medium" font-size="24.0" fill="#FEFFFE" transform="matrix(1.00, 0.00, -0.00, -1.00, 321.8, 299.0)">j</text><text xml:space="preserve" font-family="HelveticaNeue-Medium" font-size="24.0" fill="#FEFFFE" transform="matrix(1.00, 0.00, -0.00, -1.00, 327.5, 299.0)">u</text><text xml:space="preserve" font-family="HelveticaNeue-Medium" font-size="24.0" fill="#FEFFFE" transform="matrix(1.00, 0.00, -0.00, -1.00, 341.3, 299.0)">s</text><text xml:space="preserve" font-family="HelveticaNeue-Medium" font-size="24.0" fill="#FEFFFE" transform="matrix(1.00, 0.00, -0.00, -1.00, 353.8, 299.0)">t</text><text xml:space="preserve" font-family="HelveticaNeue-Medium" font-size="24.0" fill="#FEFFFE" transform="matrix(1.00, 0.00, -0.00, -1.00, 361.8, 299.0)"> </text><text xml:space="preserve" font-family="HelveticaNeue-Medium" font-size="24.0" fill="#FEFFFE" transform="matrix(1.00, 0.00, -0.00, -1.00, 368.4, 299.0)">a</text><text xml:space="preserve" font-family="HelveticaNeue-Medium" font-size="24.0" fill="#FEFFFE" transform="matrix(1.00, 0.00, -0.00, -1.00, 381.8, 299.0)">s</text><text xml:space="preserve" font-family="HelveticaNeue-Medium" font-size="24.0" fill="#FEFFFE" transform="matrix(1.00, 0.00, -0.00, -1.00, 394.2, 299.0)"> </text><text xml:space="preserve" font-family="HelveticaNeue-Medium" font-size="24.0" fill="#FEFFFE" transform="matrix(1.00, 0.00, -0.00, -1.00, 400.9, 299.0)">t</text><text xml:space="preserve" font-family="HelveticaNeue-Medium" font-size="24.0" fill="#FEFFFE" transform="matrix(1.00, 0.00, -0.00, -1.00, 408.9, 299.0)">h</text><text xml:space="preserve" font-family="HelveticaNeue-Medium" font-size="24.0" fill="#FEFFFE" transform="matrix(1.00, 0.00, -0.00, -1.00, 422.7, 299.0)">e</text><text xml:space="preserve" font-family="HelveticaNeue-Medium" font-size="24.0" fill="#FEFFFE" transform="matrix(1.00, 0.00, -0.00, -1.00, 436.0, 299.0)"> </text><image xlink:href="2CE068CF3CC4A24BD7CFAC45E019C297.png" width="401.00" height="31.00" transform="matrix(1.00, 0.00, -0.00, -1.00, 71.0, 290.0)"></image><text xml:space="preserve" font-family="HelveticaNeue-Medium" font-size="24.0" fill="#FEFFFE" transform="matrix(1.00, 0.00, -0.00, -1.00, 75.0, 270.0)">J</text><text xml:space="preserve" font-family="HelveticaNeue-Medium" font-size="24.0" fill="#FEFFFE" transform="matrix(1.00, 0.00, -0.00, -1.00, 87.9, 270.0)">a</text><text xml:space="preserve" font-family="HelveticaNeue-Medium" font-size="24.0" fill="#FEFFFE" transform="matrix(1.00, 0.00, -0.00, -1.00, 101.2, 270.0)">c</text><text xml:space="preserve" font-family="HelveticaNeue-Medium" font-size="24.0" fill="#FEFFFE" transform="matrix(1.00, 0.00, -0.00, -1.00, 114.6, 270.0)">q</text><text xml:space="preserve" font-family="HelveticaNeue-Medium" font-size="24.0" fill="#FEFFFE" transform="matrix(1.00, 0.00, -0.00, -1.00, 129.2, 270.0)">u</text><text xml:space="preserve" font-family="HelveticaNeue-Medium" font-size="24.0" fill="#FEFFFE" transform="matrix(1.00, 0.00, -0.00, -1.00, 143.0, 270.0)">a</text><text xml:space="preserve" font-family="HelveticaNeue-Medium" font-size="24.0" fill="#FEFFFE" transform="matrix(1.00, 0.00, -0.00, -1.00, 156.4, 270.0)">r</text><text xml:space="preserve" font-family="HelveticaNeue-Medium" font-size="24.0" fill="#FEFFFE" transform="matrix(1.00, 0.00, -0.00, -1.00, 164.4, 270.0)">d</text><text xml:space="preserve" font-family="HelveticaNeue-Medium" font-size="24.0" fill="#FEFFFE" transform="matrix(1.00, 0.00, -0.00, -1.00, 179.0, 270.0)">-</text><text xml:space="preserve" font-family="HelveticaNeue-Medium" font-size="24.0" fill="#FEFFFE" transform="matrix(1.00, 0.00, -0.00, -1.00, 188.4, 270.0)">l</text><text xml:space="preserve" font-family="HelveticaNeue-Medium" font-size="24.0" fill="#FEFFFE" transform="matrix(1.00, 0.00, -0.00, -1.00, 194.2, 270.0)">o</text><text xml:space="preserve" font-family="HelveticaNeue-Medium" font-size="24.0" fill="#FEFFFE" transform="matrix(1.00, 0.00, -0.00, -1.00, 208.4, 270.0)">o</text><text xml:space="preserve" font-family="HelveticaNeue-Medium" font-size="24.0" fill="#FEFFFE" transform="matrix(1.00, 0.00, -0.00, -1.00, 222.6, 270.0)">m</text><text xml:space="preserve" font-family="HelveticaNeue-Medium" font-size="24.0" fill="#FEFFFE" transform="matrix(1.00, 0.00, -0.00, -1.00, 243.5, 270.0)"> </text><text xml:space="preserve" font-family="HelveticaNeue-Medium" font-size="24.0" fill="#FEFFFE" transform="matrix(1.00, 0.00, -0.00, -1.00, 250.2, 270.0)">w</text><text xml:space="preserve" font-family="HelveticaNeue-Medium" font-size="24.0" fill="#FEFFFE" transform="matrix(1.00, 0.00, -0.00, -1.00, 268.8, 270.0)">e</text><text xml:space="preserve" font-family="HelveticaNeue-Medium" font-size="24.0" fill="#FEFFFE" transform="matrix(1.00, 0.00, -0.00, -1.00, 282.2, 270.0)">a</text><text xml:space="preserve" font-family="HelveticaNeue-Medium" font-size="24.0" fill="#FEFFFE" transform="matrix(1.00, 0.00, -0.00, -1.00, 295.5, 270.0)">v</text><text xml:space="preserve" font-family="HelveticaNeue-Medium" font-size="24.0" fill="#FEFFFE" transform="matrix(1.00, 0.00, -0.00, -1.00, 308.0, 270.0)">e</text><text xml:space="preserve" font-family="HelveticaNeue-Medium" font-size="24.0" fill="#FEFFFE" transform="matrix(1.00, 0.00, -0.00, -1.00, 321.3, 270.0)">s</text><text xml:space="preserve" font-family="HelveticaNeue-Medium" font-size="24.0" fill="#FEFFFE" transform="matrix(1.00, 0.00, -0.00, -1.00, 333.8, 270.0)"> </text><text xml:space="preserve" font-family="HelveticaNeue-Medium" font-size="24.0" fill="#FEFFFE" transform="matrix(1.00, 0.00, -0.00, -1.00, 340.5, 270.0)">ﬂ</text><text xml:space="preserve" font-family="HelveticaNeue-Medium" font-size="24.0" fill="#FEFFFE" transform="matrix(1.00, 0.00, -0.00, -1.00, 353.8, 270.0)">o</text><text xml:space="preserve" font-family="HelveticaNeue-Medium" font-size="24.0" fill="#FEFFFE" transform="matrix(1.00, 0.00, -0.00, -1.00, 368.0, 270.0)">w</text><text xml:space="preserve" font-family="HelveticaNeue-Medium" font-size="24.0" fill="#FEFFFE" transform="matrix(1.00, 0.00, -0.00, -1.00, 386.7, 270.0)">e</text><text xml:space="preserve" font-family="HelveticaNeue-Medium" font-size="24.0" fill="#FEFFFE" transform="matrix(1.00, 0.00, -0.00, -1.00, 400.1, 270.0)">r</text><text xml:space="preserve" font-family="HelveticaNeue-Medium" font-size="24.0" fill="#FEFFFE" transform="matrix(1.00, 0.00, -0.00, -1.00, 408.5, 270.0)">s</text><text xml:space="preserve" font-family="HelveticaNeue-Medium" font-size="24.0" fill="#FEFFFE" transform="matrix(1.00, 0.00, -0.00, -1.00, 421.0, 270.0)"> </text><text xml:space="preserve" font-family="HelveticaNeue-Medium" font-size="24.0" fill="#FEFFFE" transform="matrix(1.00, 0.00, -0.00, -1.00, 427.6, 270.0)">a</text><text xml:space="preserve" font-family="HelveticaNeue-Medium" font-size="24.0" fill="#FEFFFE" transform="matrix(1.00, 0.00, -0.00, -1.00, 441.0, 270.0)">n</text><text xml:space="preserve" font-family="HelveticaNeue-Medium" font-size="24.0" fill="#FEFFFE" transform="matrix(1.00, 0.00, -0.00, -1.00, 454.8, 270.0)">d</text><text xml:space="preserve" font-family="HelveticaNeue-Medium" font-size="24.0" fill="#FEFFFE" transform="matrix(1.00, 0.00, -0.00, -1.00, 469.4, 270.0)"> </text><image xlink:href="4389DE72CEB8716D118D630EFE4E8D83.png" width="94.00" height="27.00" transform="matrix(1.00, 0.00, -0.00, -1.00, 225.0, 261.0)"></image><text xml:space="preserve" font-family="HelveticaNeue-Medium" font-size="24.0" fill="#FEFFFE" transform="matrix(1.00, 0.00, -0.00, -1.00, 228.0, 241.0)">l</text><text xml:space="preserve" font-family="HelveticaNeue-Medium" font-size="24.0" fill="#FEFFFE" transform="matrix(1.00, 0.00, -0.00, -1.00, 233.8, 241.0)">e</text><text xml:space="preserve" font-family="HelveticaNeue-Medium" font-size="24.0" fill="#FEFFFE" transform="matrix(1.00, 0.00, -0.00, -1.00, 247.1, 241.0)">a</text><text xml:space="preserve" font-family="HelveticaNeue-Medium" font-size="24.0" fill="#FEFFFE" transform="matrix(1.00, 0.00, -0.00, -1.00, 260.5, 241.0)">v</text><text xml:space="preserve" font-family="HelveticaNeue-Medium" font-size="24.0" fill="#FEFFFE" transform="matrix(1.00, 0.00, -0.00, -1.00, 272.9, 241.0)">e</text><text xml:space="preserve" font-family="HelveticaNeue-Medium" font-size="24.0" fill="#FEFFFE" transform="matrix(1.00, 0.00, -0.00, -1.00, 286.3, 241.0)">s</text><text xml:space="preserve" font-family="HelveticaNeue-Medium" font-size="24.0" fill="#FEFFFE" transform="matrix(1.00, 0.00, -0.00, -1.00, 298.7, 241.0)">.</text><text xml:space="preserve" font-family="HelveticaNeue-Medium" font-size="24.0" fill="#FEFFFE" transform="matrix(1.00, 0.00, -0.00, -1.00, 305.4, 241.0)">”</text></g></svg>