<?xml version="1.0" encoding="UTF-8" standalone="no"?><svg xmlns="http://www.w3.org/2000/svg" xmlns:xlink="http://www.w3.org/1999/xlink" clip-rule="evenodd" stroke-miterlimit="4.00" viewBox="0 0 1024 768"><desc>SVG generated by Keynote</desc><defs></defs><g transform="matrix(1.00, 0.00, -0.00, -1.00, 0.0, 768.0)"><g><clipPath id="clip-20"><path d="M 0.0 768.0 L 1024.0 768.0 L 1024.0 0.0 L 0.0 0.0 Z M 0.0 768.0 "></path></clipPath><g clip-path="url(#clip-20)"><image xlink:href="../../88BE00EE-B7C2-433C-BF68-EC247890C908/assets/5B9A5093AD152E37B528B63B071C6217.jpeg" width="1024.00" height="768.00" transform="matrix(1.00, 0.00, -0.00, -1.00, 0.0, 768.0)"></image></g></g><image xlink:href="FB94B2F54D67E0215EAE138617E945FF.png" width="971.00" height="564.00" transform="matrix(1.00, 0.00, -0.00, -1.00, 26.5, 667.6)" opacity="0.70"></image><image xlink:href="18DA6EE5AA1A16745AC10D7B71B8BAD8.png" width="640.00" height="360.00" transform="matrix(1.46, 0.00, -0.00, -1.46, 46.0, 658.0)"></image><image xlink:href="4CFEE17B9FA232F4327EFE00FA46E883.png" width="902.00" height="56.00" transform="matrix(1.00, 0.00, -0.00, -1.00, 61.0, 726.0)"></image><text xml:space="preserve" font-family="HelveticaNeue-Bold" font-weight="bold" font-size="51.2" fill="#FEFFFE" transform="matrix(1.00, 0.00, -0.00, -1.00, 64.0, 686.0)">C</text><text xml:space="preserve" font-family="HelveticaNeue-Bold" font-weight="bold" font-size="51.2" fill="#FEFFFE" transform="matrix(1.00, 0.00, -0.00, -1.00, 101.9, 686.0)">h</text><text xml:space="preserve" font-family="HelveticaNeue-Bold" font-weight="bold" font-size="51.2" fill="#FEFFFE" transform="matrix(1.00, 0.00, -0.00, -1.00, 132.3, 686.0)">a</text><text xml:space="preserve" font-family="HelveticaNeue-Bold" font-weight="bold" font-size="51.2" fill="#FEFFFE" transform="matrix(1.00, 0.00, -0.00, -1.00, 161.7, 686.0)">r</text><text xml:space="preserve" font-family="HelveticaNeue-Bold" font-weight="bold" font-size="51.2" fill="#FEFFFE" transform="matrix(1.00, 0.00, -0.00, -1.00, 181.6, 686.0)">l</text><text xml:space="preserve" font-family="HelveticaNeue-Bold" font-weight="bold" font-size="51.2" fill="#FEFFFE" transform="matrix(1.00, 0.00, -0.00, -1.00, 194.8, 686.0)">e</text><text xml:space="preserve" font-family="HelveticaNeue-Bold" font-weight="bold" font-size="51.2" fill="#FEFFFE" transform="matrix(1.00, 0.00, -0.00, -1.00, 224.2, 686.0)">s</text><text xml:space="preserve" font-family="HelveticaNeue-Bold" font-weight="bold" font-size="51.2" fill="#FEFFFE" transform="matrix(1.00, 0.00, -0.00, -1.00, 251.7, 686.0)"> </text><text xml:space="preserve" font-family="HelveticaNeue-Bold" font-weight="bold" font-size="51.2" fill="#FEFFFE" transform="matrix(1.00, 0.00, -0.00, -1.00, 265.9, 686.0)">B</text><text xml:space="preserve" font-family="HelveticaNeue-Bold" font-weight="bold" font-size="51.2" fill="#FEFFFE" transform="matrix(1.00, 0.00, -0.00, -1.00, 302.0, 686.0)">a</text><text xml:space="preserve" font-family="HelveticaNeue-Bold" font-weight="bold" font-size="51.2" fill="#FEFFFE" transform="matrix(1.00, 0.00, -0.00, -1.00, 331.4, 686.0)">b</text><text xml:space="preserve" font-family="HelveticaNeue-Bold" font-weight="bold" font-size="51.2" fill="#FEFFFE" transform="matrix(1.00, 0.00, -0.00, -1.00, 362.6, 686.0)">b</text><text xml:space="preserve" font-family="HelveticaNeue-Bold" font-weight="bold" font-size="51.2" fill="#FEFFFE" transform="matrix(1.00, 0.00, -0.00, -1.00, 393.9, 686.0)">a</text><text xml:space="preserve" font-family="HelveticaNeue-Bold" font-weight="bold" font-size="51.2" fill="#FEFFFE" transform="matrix(1.00, 0.00, -0.00, -1.00, 423.3, 686.0)">g</text><text xml:space="preserve" font-family="HelveticaNeue-Bold" font-weight="bold" font-size="51.2" fill="#FEFFFE" transform="matrix(1.00, 0.00, -0.00, -1.00, 454.6, 686.0)">e</text><text xml:space="preserve" font-family="HelveticaNeue-Bold" font-weight="bold" font-size="51.2" fill="#FEFFFE" transform="matrix(1.00, 0.00, -0.00, -1.00, 484.0, 686.0)">'</text><text xml:space="preserve" font-family="HelveticaNeue-Bold" font-weight="bold" font-size="51.2" fill="#FEFFFE" transform="matrix(1.00, 0.00, -0.00, -1.00, 498.2, 686.0)">s</text><text xml:space="preserve" font-family="HelveticaNeue-Bold" font-weight="bold" font-size="51.2" fill="#FEFFFE" transform="matrix(1.00, 0.00, -0.00, -1.00, 525.7, 686.0)"> </text><text xml:space="preserve" font-family="HelveticaNeue-Bold" font-weight="bold" font-size="51.2" fill="#FEFFFE" transform="matrix(1.00, 0.00, -0.00, -1.00, 540.0, 686.0)">A</text><text xml:space="preserve" font-family="HelveticaNeue-Bold" font-weight="bold" font-size="51.2" fill="#FEFFFE" transform="matrix(1.00, 0.00, -0.00, -1.00, 575.0, 686.0)">n</text><text xml:space="preserve" font-family="HelveticaNeue-Bold" font-weight="bold" font-size="51.2" fill="#FEFFFE" transform="matrix(1.00, 0.00, -0.00, -1.00, 605.4, 686.0)">a</text><text xml:space="preserve" font-family="HelveticaNeue-Bold" font-weight="bold" font-size="51.2" fill="#FEFFFE" transform="matrix(1.00, 0.00, -0.00, -1.00, 634.8, 686.0)">l</text><text xml:space="preserve" font-family="HelveticaNeue-Bold" font-weight="bold" font-size="51.2" fill="#FEFFFE" transform="matrix(1.00, 0.00, -0.00, -1.00, 648.0, 686.0)">y</text><text xml:space="preserve" font-family="HelveticaNeue-Bold" font-weight="bold" font-size="51.2" fill="#FEFFFE" transform="matrix(1.00, 0.00, -0.00, -1.00, 674.6, 686.0)">t</text><text xml:space="preserve" font-family="HelveticaNeue-Bold" font-weight="bold" font-size="51.2" fill="#FEFFFE" transform="matrix(1.00, 0.00, -0.00, -1.00, 692.6, 686.0)">i</text><text xml:space="preserve" font-family="HelveticaNeue-Bold" font-weight="bold" font-size="51.2" fill="#FEFFFE" transform="matrix(1.00, 0.00, -0.00, -1.00, 705.8, 686.0)">c</text><text xml:space="preserve" font-family="HelveticaNeue-Bold" font-weight="bold" font-size="51.2" fill="#FEFFFE" transform="matrix(1.00, 0.00, -0.00, -1.00, 735.2, 686.0)">a</text><text xml:space="preserve" font-family="HelveticaNeue-Bold" font-weight="bold" font-size="51.2" fill="#FEFFFE" transform="matrix(1.00, 0.00, -0.00, -1.00, 764.6, 686.0)">l</text><text xml:space="preserve" font-family="HelveticaNeue-Bold" font-weight="bold" font-size="51.2" fill="#FEFFFE" transform="matrix(1.00, 0.00, -0.00, -1.00, 777.8, 686.0)"> </text><text xml:space="preserve" font-family="HelveticaNeue-Bold" font-weight="bold" font-size="51.2" fill="#FEFFFE" transform="matrix(1.00, 0.00, -0.00, -1.00, 792.0, 686.0)">E</text><text xml:space="preserve" font-family="HelveticaNeue-Bold" font-weight="bold" font-size="51.2" fill="#FEFFFE" transform="matrix(1.00, 0.00, -0.00, -1.00, 825.2, 686.0)">n</text><text xml:space="preserve" font-family="HelveticaNeue-Bold" font-weight="bold" font-size="51.2" fill="#FEFFFE" transform="matrix(1.00, 0.00, -0.00, -1.00, 855.6, 686.0)">g</text><text xml:space="preserve" font-family="HelveticaNeue-Bold" font-weight="bold" font-size="51.2" fill="#FEFFFE" transform="matrix(1.00, 0.00, -0.00, -1.00, 886.8, 686.0)">i</text><text xml:space="preserve" font-family="HelveticaNeue-Bold" font-weight="bold" font-size="51.2" fill="#FEFFFE" transform="matrix(1.00, 0.00, -0.00, -1.00, 900.0, 686.0)">n</text><text xml:space="preserve" font-family="HelveticaNeue-Bold" font-weight="bold" font-size="51.2" fill="#FEFFFE" transform="matrix(1.00, 0.00, -0.00, -1.00, 930.4, 686.0)">e</text><image xlink:href="2EDB3570B98346F027E667E3C953B0AD.png" width="440.00" height="31.00" transform="matrix(1.00, 0.00, -0.00, -1.00, 292.0, 91.0)"></image><text xml:space="preserve" font-family="HelveticaNeue-Medium" font-size="24.0" fill="#FEFFFE" transform="matrix(1.00, 0.00, -0.00, -1.00, 295.0, 71.0)">h</text><text xml:space="preserve" font-family="HelveticaNeue-Medium" font-size="24.0" fill="#FEFFFE" transform="matrix(1.00, 0.00, -0.00, -1.00, 308.8, 71.0)">t</text><text xml:space="preserve" font-family="HelveticaNeue-Medium" font-size="24.0" fill="#FEFFFE" transform="matrix(1.00, 0.00, -0.00, -1.00, 316.8, 71.0)">t</text><text xml:space="preserve" font-family="HelveticaNeue-Medium" font-size="24.0" fill="#FEFFFE" transform="matrix(1.00, 0.00, -0.00, -1.00, 324.8, 71.0)">p</text><text xml:space="preserve" font-family="HelveticaNeue-Medium" font-size="24.0" fill="#FEFFFE" transform="matrix(1.00, 0.00, -0.00, -1.00, 339.4, 71.0)">s</text><text xml:space="preserve" font-family="HelveticaNeue-Medium" font-size="24.0" fill="#FEFFFE" transform="matrix(1.00, 0.00, -0.00, -1.00, 351.9, 71.0)">:</text><text xml:space="preserve" font-family="HelveticaNeue-Medium" font-size="24.0" fill="#FEFFFE" transform="matrix(1.00, 0.00, -0.00, -1.00, 358.6, 71.0)">/</text><text xml:space="preserve" font-family="HelveticaNeue-Medium" font-size="24.0" fill="#FEFFFE" transform="matrix(1.00, 0.00, -0.00, -1.00, 367.0, 71.0)">/</text><text xml:space="preserve" font-family="HelveticaNeue-Medium" font-size="24.0" fill="#FEFFFE" transform="matrix(1.00, 0.00, -0.00, -1.00, 375.4, 71.0)">y</text><text xml:space="preserve" font-family="HelveticaNeue-Medium" font-size="24.0" fill="#FEFFFE" transform="matrix(1.00, 0.00, -0.00, -1.00, 387.9, 71.0)">o</text><text xml:space="preserve" font-family="HelveticaNeue-Medium" font-size="24.0" fill="#FEFFFE" transform="matrix(1.00, 0.00, -0.00, -1.00, 402.1, 71.0)">u</text><text xml:space="preserve" font-family="HelveticaNeue-Medium" font-size="24.0" fill="#FEFFFE" transform="matrix(1.00, 0.00, -0.00, -1.00, 415.9, 71.0)">t</text><text xml:space="preserve" font-family="HelveticaNeue-Medium" font-size="24.0" fill="#FEFFFE" transform="matrix(1.00, 0.00, -0.00, -1.00, 423.9, 71.0)">u</text><text xml:space="preserve" font-family="HelveticaNeue-Medium" font-size="24.0" fill="#FEFFFE" transform="matrix(1.00, 0.00, -0.00, -1.00, 437.7, 71.0)">.</text><text xml:space="preserve" font-family="HelveticaNeue-Medium" font-size="24.0" fill="#FEFFFE" transform="matrix(1.00, 0.00, -0.00, -1.00, 444.4, 71.0)">b</text><text xml:space="preserve" font-family="HelveticaNeue-Medium" font-size="24.0" fill="#FEFFFE" transform="matrix(1.00, 0.00, -0.00, -1.00, 459.0, 71.0)">e</text><text xml:space="preserve" font-family="HelveticaNeue-Medium" font-size="24.0" fill="#FEFFFE" transform="matrix(1.00, 0.00, -0.00, -1.00, 472.4, 71.0)">/</text><text xml:space="preserve" font-family="HelveticaNeue-Medium" font-size="24.0" fill="#FEFFFE" transform="matrix(1.00, 0.00, -0.00, -1.00, 480.8, 71.0)">Q</text><text xml:space="preserve" font-family="HelveticaNeue-Medium" font-size="24.0" fill="#FEFFFE" transform="matrix(1.00, 0.00, -0.00, -1.00, 499.0, 71.0)">V</text><text xml:space="preserve" font-family="HelveticaNeue-Medium" font-size="24.0" fill="#FEFFFE" transform="matrix(1.00, 0.00, -0.00, -1.00, 513.7, 71.0)">x</text><text xml:space="preserve" font-family="HelveticaNeue-Medium" font-size="24.0" fill="#FEFFFE" transform="matrix(1.00, 0.00, -0.00, -1.00, 526.6, 71.0)">b</text><text xml:space="preserve" font-family="HelveticaNeue-Medium" font-size="24.0" fill="#FEFFFE" transform="matrix(1.00, 0.00, -0.00, -1.00, 541.3, 71.0)">N</text><text xml:space="preserve" font-family="HelveticaNeue-Medium" font-size="24.0" fill="#FEFFFE" transform="matrix(1.00, 0.00, -0.00, -1.00, 558.6, 71.0)">Z</text><text xml:space="preserve" font-family="HelveticaNeue-Medium" font-size="24.0" fill="#FEFFFE" transform="matrix(1.00, 0.00, -0.00, -1.00, 573.7, 71.0)">W</text><text xml:space="preserve" font-family="HelveticaNeue-Medium" font-size="24.0" fill="#FEFFFE" transform="matrix(1.00, 0.00, -0.00, -1.00, 596.4, 71.0)">L</text><text xml:space="preserve" font-family="HelveticaNeue-Medium" font-size="24.0" fill="#FEFFFE" transform="matrix(1.00, 0.00, -0.00, -1.00, 610.1, 71.0)">P</text><text xml:space="preserve" font-family="HelveticaNeue-Medium" font-size="24.0" fill="#FEFFFE" transform="matrix(1.00, 0.00, -0.00, -1.00, 626.2, 71.0)">6</text><text xml:space="preserve" font-family="HelveticaNeue-Medium" font-size="24.0" fill="#FEFFFE" transform="matrix(1.00, 0.00, -0.00, -1.00, 639.5, 71.0)">0</text><text xml:space="preserve" font-family="HelveticaNeue-Medium" font-size="24.0" fill="#FEFFFE" transform="matrix(1.00, 0.00, -0.00, -1.00, 652.8, 71.0)">?</text><text xml:space="preserve" font-family="HelveticaNeue-Medium" font-size="24.0" fill="#FEFFFE" transform="matrix(1.00, 0.00, -0.00, -1.00, 666.2, 71.0)">t</text><text xml:space="preserve" font-family="HelveticaNeue-Medium" font-size="24.0" fill="#FEFFFE" transform="matrix(1.00, 0.00, -0.00, -1.00, 674.2, 71.0)">=</text><text xml:space="preserve" font-family="HelveticaNeue-Medium" font-size="24.0" fill="#FEFFFE" transform="matrix(1.00, 0.00, -0.00, -1.00, 688.6, 71.0)">2</text><text xml:space="preserve" font-family="HelveticaNeue-Medium" font-size="24.0" fill="#FEFFFE" transform="matrix(1.00, 0.00, -0.00, -1.00, 701.9, 71.0)">2</text><text xml:space="preserve" font-family="HelveticaNeue-Medium" font-size="24.0" fill="#FEFFFE" transform="matrix(1.00, 0.00, -0.00, -1.00, 715.3, 71.0)">0</text><text xml:space="preserve" font-family="HelveticaNeue-Medium" font-size="24.0" fill="#FEFFFE" transform="matrix(1.00, 0.00, -0.00, -1.00, 728.6, 71.0)"> </text><g><clipPath id="clip-21"><path d="M 294.2 67.4 L 728.8 67.4 L 728.8 70.6 L 294.2 70.6 Z M 294.2 67.4 "></path></clipPath><g clip-path="url(#clip-21)"><path d="M 235.2 28.9 L 668.8 28.9 " fill="none" stroke="#FEFFFE" stroke-width="1.20" stroke-miterlimit="0.00" transform="matrix(1.00, 0.00, 0.00, -1.00, 60.0, 97.9)"></path></g></g></g></svg>