<?xml version="1.0" encoding="UTF-8" standalone="no"?><svg xmlns="http://www.w3.org/2000/svg" xmlns:xlink="http://www.w3.org/1999/xlink" clip-rule="evenodd" stroke-miterlimit="4.00" viewBox="0 0 1024 768"><desc>SVG generated by Keynote</desc><defs></defs><g transform="matrix(1.00, 0.00, -0.00, -1.00, 0.0, 768.0)"><g><clipPath id="clip-40"><path d="M 0.0 768.0 L 1024.0 768.0 L 1024.0 0.0 L 0.0 0.0 Z M 0.0 768.0 "></path></clipPath><g clip-path="url(#clip-40)"><image xlink:href="../../88BE00EE-B7C2-433C-BF68-EC247890C908/assets/5B9A5093AD152E37B528B63B071C6217.jpeg" width="1024.00" height="768.00" transform="matrix(1.00, 0.00, -0.00, -1.00, 0.0, 768.0)"></image></g></g><image xlink:href="../../88BE00EE-B7C2-433C-BF68-EC247890C908/assets/5957DEC2E6D2559A3E1B7E3307EBB29E.png" width="480.00" height="576.00" transform="matrix(1.00, 0.00, -0.00, -1.00, 504.0, 591.0)" opacity="0.70"></image><g><clipPath id="clip-41"><path d="M 524.0 581.0 L 964.0 581.0 L 964.0 45.0 L 524.0 45.0 Z M 524.0 581.0 "></path></clipPath><g clip-path="url(#clip-41)"><image xlink:href="A0C8E34CB5B456E05E17853B9E651DAF.jpeg" width="489.00" height="704.00" transform="matrix(1.00, 0.00, -0.00, -1.00, 484.0, 652.0)"></image></g></g><image xlink:href="DC2B65ED9617C8A4EDD1FEE6510392EA.png" width="855.00" height="55.00" transform="matrix(1.00, 0.00, -0.00, -1.00, 87.0, 731.0)"></image><text xml:space="preserve" font-family="HelveticaNeue-Bold" font-weight="bold" font-size="64.0" fill="#FEFFFE" transform="matrix(1.00, 0.00, -0.00, -1.00, 87.0, 683.0)">L</text><text xml:space="preserve" font-family="HelveticaNeue-Bold" font-weight="bold" font-size="64.0" fill="#FEFFFE" transform="matrix(1.00, 0.00, -0.00, -1.00, 125.0, 683.0)">o</text><text xml:space="preserve" font-family="HelveticaNeue-Bold" font-weight="bold" font-size="64.0" fill="#FEFFFE" transform="matrix(1.00, 0.00, -0.00, -1.00, 164.1, 683.0)">v</text><text xml:space="preserve" font-family="HelveticaNeue-Bold" font-weight="bold" font-size="64.0" fill="#FEFFFE" transform="matrix(1.00, 0.00, -0.00, -1.00, 197.3, 683.0)">e</text><text xml:space="preserve" font-family="HelveticaNeue-Bold" font-weight="bold" font-size="64.0" fill="#FEFFFE" transform="matrix(1.00, 0.00, -0.00, -1.00, 234.1, 683.0)">l</text><text xml:space="preserve" font-family="HelveticaNeue-Bold" font-weight="bold" font-size="64.0" fill="#FEFFFE" transform="matrix(1.00, 0.00, -0.00, -1.00, 250.6, 683.0)">a</text><text xml:space="preserve" font-family="HelveticaNeue-Bold" font-weight="bold" font-size="64.0" fill="#FEFFFE" transform="matrix(1.00, 0.00, -0.00, -1.00, 287.3, 683.0)">c</text><text xml:space="preserve" font-family="HelveticaNeue-Bold" font-weight="bold" font-size="64.0" fill="#FEFFFE" transform="matrix(1.00, 0.00, -0.00, -1.00, 324.1, 683.0)">e</text><text xml:space="preserve" font-family="HelveticaNeue-Bold" font-weight="bold" font-size="64.0" fill="#FEFFFE" transform="matrix(1.00, 0.00, -0.00, -1.00, 360.8, 683.0)"> </text><text xml:space="preserve" font-family="HelveticaNeue-Bold" font-weight="bold" font-size="64.0" fill="#FEFFFE" transform="matrix(1.00, 0.00, -0.00, -1.00, 378.6, 683.0)">o</text><text xml:space="preserve" font-family="HelveticaNeue-Bold" font-weight="bold" font-size="64.0" fill="#FEFFFE" transform="matrix(1.00, 0.00, -0.00, -1.00, 417.7, 683.0)">n</text><text xml:space="preserve" font-family="HelveticaNeue-Bold" font-weight="bold" font-size="64.0" fill="#FEFFFE" transform="matrix(1.00, 0.00, -0.00, -1.00, 455.6, 683.0)"> </text><text xml:space="preserve" font-family="HelveticaNeue-Bold" font-weight="bold" font-size="64.0" fill="#FEFFFE" transform="matrix(1.00, 0.00, -0.00, -1.00, 473.4, 683.0)">t</text><text xml:space="preserve" font-family="HelveticaNeue-Bold" font-weight="bold" font-size="64.0" fill="#FEFFFE" transform="matrix(1.00, 0.00, -0.00, -1.00, 496.0, 683.0)">h</text><text xml:space="preserve" font-family="HelveticaNeue-Bold" font-weight="bold" font-size="64.0" fill="#FEFFFE" transform="matrix(1.00, 0.00, -0.00, -1.00, 533.9, 683.0)">e</text><text xml:space="preserve" font-family="HelveticaNeue-Bold" font-weight="bold" font-size="64.0" fill="#FEFFFE" transform="matrix(1.00, 0.00, -0.00, -1.00, 570.6, 683.0)"> </text><text xml:space="preserve" font-family="HelveticaNeue-Bold" font-weight="bold" font-size="64.0" fill="#FEFFFE" transform="matrix(1.00, 0.00, -0.00, -1.00, 588.4, 683.0)">P</text><text xml:space="preserve" font-family="HelveticaNeue-Bold" font-weight="bold" font-size="64.0" fill="#FEFFFE" transform="matrix(1.00, 0.00, -0.00, -1.00, 631.1, 683.0)">o</text><text xml:space="preserve" font-family="HelveticaNeue-Bold" font-weight="bold" font-size="64.0" fill="#FEFFFE" transform="matrix(1.00, 0.00, -0.00, -1.00, 670.2, 683.0)">t</text><text xml:space="preserve" font-family="HelveticaNeue-Bold" font-weight="bold" font-size="64.0" fill="#FEFFFE" transform="matrix(1.00, 0.00, -0.00, -1.00, 692.8, 683.0)">e</text><text xml:space="preserve" font-family="HelveticaNeue-Bold" font-weight="bold" font-size="64.0" fill="#FEFFFE" transform="matrix(1.00, 0.00, -0.00, -1.00, 729.5, 683.0)">n</text><text xml:space="preserve" font-family="HelveticaNeue-Bold" font-weight="bold" font-size="64.0" fill="#FEFFFE" transform="matrix(1.00, 0.00, -0.00, -1.00, 767.4, 683.0)">t</text><text xml:space="preserve" font-family="HelveticaNeue-Bold" font-weight="bold" font-size="64.0" fill="#FEFFFE" transform="matrix(1.00, 0.00, -0.00, -1.00, 790.0, 683.0)">i</text><text xml:space="preserve" font-family="HelveticaNeue-Bold" font-weight="bold" font-size="64.0" fill="#FEFFFE" transform="matrix(1.00, 0.00, -0.00, -1.00, 806.5, 683.0)">a</text><text xml:space="preserve" font-family="HelveticaNeue-Bold" font-weight="bold" font-size="64.0" fill="#FEFFFE" transform="matrix(1.00, 0.00, -0.00, -1.00, 843.2, 683.0)">l</text><text xml:space="preserve" font-family="HelveticaNeue-Bold" font-weight="bold" font-size="64.0" fill="#FEFFFE" transform="matrix(1.00, 0.00, -0.00, -1.00, 859.7, 683.0)"> </text><text xml:space="preserve" font-family="HelveticaNeue-Bold" font-weight="bold" font-size="64.0" fill="#FEFFFE" transform="matrix(1.00, 0.00, -0.00, -1.00, 877.5, 683.0)">o</text><text xml:space="preserve" font-family="HelveticaNeue-Bold" font-weight="bold" font-size="64.0" fill="#FEFFFE" transform="matrix(1.00, 0.00, -0.00, -1.00, 916.6, 683.0)">f</text><text xml:space="preserve" font-family="HelveticaNeue-Bold" font-weight="bold" font-size="64.0" fill="#FEFFFE" transform="matrix(1.00, 0.00, -0.00, -1.00, 937.9, 683.0)"> </text><image xlink:href="36C3E3AA9C8979FE8F7B88DB3EC023F4.png" width="104.00" height="55.00" transform="matrix(1.00, 0.00, -0.00, -1.00, 188.0, 653.0)"></image><text xml:space="preserve" font-family="HelveticaNeue-Bold" font-weight="bold" font-size="64.0" fill="#FEFFFE" transform="matrix(1.00, 0.00, -0.00, -1.00, 192.0, 605.0)">t</text><text xml:space="preserve" font-family="HelveticaNeue-Bold" font-weight="bold" font-size="64.0" fill="#FEFFFE" transform="matrix(1.00, 0.00, -0.00, -1.00, 214.5, 605.0)">h</text><text xml:space="preserve" font-family="HelveticaNeue-Bold" font-weight="bold" font-size="64.0" fill="#FEFFFE" transform="matrix(1.00, 0.00, -0.00, -1.00, 252.5, 605.0)">e</text><text xml:space="preserve" font-family="HelveticaNeue-Bold" font-weight="bold" font-size="64.0" fill="#FEFFFE" transform="matrix(1.00, 0.00, -0.00, -1.00, 289.2, 605.0)"> </text><image xlink:href="59CB8281BC809F514102821FB2AF23F6.png" width="532.00" height="67.00" transform="matrix(1.00, 0.00, -0.00, -1.00, 302.0, 653.0)"></image><text xml:space="preserve" font-family="HelveticaNeue-Bold" font-weight="bold" font-size="64.0" fill="#FEFFFE" transform="matrix(1.00, 0.00, -0.00, -1.00, 307.0, 605.0)">A</text><text xml:space="preserve" font-family="HelveticaNeue-Bold" font-weight="bold" font-size="64.0" fill="#FEFFFE" transform="matrix(1.00, 0.00, -0.00, -1.00, 350.8, 605.0)">n</text><text xml:space="preserve" font-family="HelveticaNeue-Bold" font-weight="bold" font-size="64.0" fill="#FEFFFE" transform="matrix(1.00, 0.00, -0.00, -1.00, 388.8, 605.0)">a</text><text xml:space="preserve" font-family="HelveticaNeue-Bold" font-weight="bold" font-size="64.0" fill="#FEFFFE" transform="matrix(1.00, 0.00, -0.00, -1.00, 425.5, 605.0)">l</text><text xml:space="preserve" font-family="HelveticaNeue-Bold" font-weight="bold" font-size="64.0" fill="#FEFFFE" transform="matrix(1.00, 0.00, -0.00, -1.00, 442.0, 605.0)">y</text><text xml:space="preserve" font-family="HelveticaNeue-Bold" font-weight="bold" font-size="64.0" fill="#FEFFFE" transform="matrix(1.00, 0.00, -0.00, -1.00, 475.3, 605.0)">t</text><text xml:space="preserve" font-family="HelveticaNeue-Bold" font-weight="bold" font-size="64.0" fill="#FEFFFE" transform="matrix(1.00, 0.00, -0.00, -1.00, 497.8, 605.0)">i</text><text xml:space="preserve" font-family="HelveticaNeue-Bold" font-weight="bold" font-size="64.0" fill="#FEFFFE" transform="matrix(1.00, 0.00, -0.00, -1.00, 514.3, 605.0)">c</text><text xml:space="preserve" font-family="HelveticaNeue-Bold" font-weight="bold" font-size="64.0" fill="#FEFFFE" transform="matrix(1.00, 0.00, -0.00, -1.00, 551.0, 605.0)">a</text><text xml:space="preserve" font-family="HelveticaNeue-Bold" font-weight="bold" font-size="64.0" fill="#FEFFFE" transform="matrix(1.00, 0.00, -0.00, -1.00, 587.8, 605.0)">l</text><text xml:space="preserve" font-family="HelveticaNeue-Bold" font-weight="bold" font-size="64.0" fill="#FEFFFE" transform="matrix(1.00, 0.00, -0.00, -1.00, 604.3, 605.0)"> </text><text xml:space="preserve" font-family="HelveticaNeue-Bold" font-weight="bold" font-size="64.0" fill="#FEFFFE" transform="matrix(1.00, 0.00, -0.00, -1.00, 622.1, 605.0)">E</text><text xml:space="preserve" font-family="HelveticaNeue-Bold" font-weight="bold" font-size="64.0" fill="#FEFFFE" transform="matrix(1.00, 0.00, -0.00, -1.00, 663.6, 605.0)">n</text><text xml:space="preserve" font-family="HelveticaNeue-Bold" font-weight="bold" font-size="64.0" fill="#FEFFFE" transform="matrix(1.00, 0.00, -0.00, -1.00, 701.5, 605.0)">g</text><text xml:space="preserve" font-family="HelveticaNeue-Bold" font-weight="bold" font-size="64.0" fill="#FEFFFE" transform="matrix(1.00, 0.00, -0.00, -1.00, 740.6, 605.0)">i</text><text xml:space="preserve" font-family="HelveticaNeue-Bold" font-weight="bold" font-size="64.0" fill="#FEFFFE" transform="matrix(1.00, 0.00, -0.00, -1.00, 757.1, 605.0)">n</text><text xml:space="preserve" font-family="HelveticaNeue-Bold" font-weight="bold" font-size="64.0" fill="#FEFFFE" transform="matrix(1.00, 0.00, -0.00, -1.00, 795.1, 605.0)">e</text><image xlink:href="../../74A8C3D1-33A5-4703-9574-FC1DAF0DA2DD/assets/6288F7B1ED39D6885A9D788C82D4013C.png" width="17.00" height="16.00" transform="matrix(1.00, 0.00, -0.00, -1.00, 61.0, 486.0)"></image><text xml:space="preserve" font-family="HelveticaNeue-Medium" font-size="21.0" fill="#EBEAEA" transform="matrix(1.00, 0.00, -0.00, -1.00, 64.0, 472.3)">•</text><image xlink:href="62EBE5D78192C15F3F41000C7449D2B1.png" width="377.00" height="34.00" transform="matrix(1.00, 0.00, -0.00, -1.00, 89.0, 492.0)"></image><text xml:space="preserve" font-family="HelveticaNeue-Medium" font-size="28.0" fill="#EAEAEA" transform="matrix(1.00, 0.00, -0.00, -1.00, 91.0, 470.0)">M</text><text xml:space="preserve" font-family="HelveticaNeue-Medium" font-size="28.0" fill="#EAEAEA" transform="matrix(1.00, 0.00, -0.00, -1.00, 115.9, 470.0)">a</text><text xml:space="preserve" font-family="HelveticaNeue-Medium" font-size="28.0" fill="#EAEAEA" transform="matrix(1.00, 0.00, -0.00, -1.00, 131.5, 470.0)">n</text><text xml:space="preserve" font-family="HelveticaNeue-Medium" font-size="28.0" fill="#EAEAEA" transform="matrix(1.00, 0.00, -0.00, -1.00, 147.5, 470.0)">i</text><text xml:space="preserve" font-family="HelveticaNeue-Medium" font-size="28.0" fill="#EAEAEA" transform="matrix(1.00, 0.00, -0.00, -1.00, 154.3, 470.0)">p</text><text xml:space="preserve" font-family="HelveticaNeue-Medium" font-size="28.0" fill="#EAEAEA" transform="matrix(1.00, 0.00, -0.00, -1.00, 171.4, 470.0)">u</text><text xml:space="preserve" font-family="HelveticaNeue-Medium" font-size="28.0" fill="#EAEAEA" transform="matrix(1.00, 0.00, -0.00, -1.00, 187.5, 470.0)">l</text><text xml:space="preserve" font-family="HelveticaNeue-Medium" font-size="28.0" fill="#EAEAEA" transform="matrix(1.00, 0.00, -0.00, -1.00, 194.2, 470.0)">a</text><text xml:space="preserve" font-family="HelveticaNeue-Medium" font-size="28.0" fill="#EAEAEA" transform="matrix(1.00, 0.00, -0.00, -1.00, 209.8, 470.0)">t</text><text xml:space="preserve" font-family="HelveticaNeue-Medium" font-size="28.0" fill="#EAEAEA" transform="matrix(1.00, 0.00, -0.00, -1.00, 219.1, 470.0)">e</text><text xml:space="preserve" font-family="HelveticaNeue-Medium" font-size="28.0" fill="#EAEAEA" transform="matrix(1.00, 0.00, -0.00, -1.00, 234.7, 470.0)"> </text><text xml:space="preserve" font-family="HelveticaNeue-Medium" font-size="28.0" fill="#EAEAEA" transform="matrix(1.00, 0.00, -0.00, -1.00, 242.5, 470.0)">a</text><text xml:space="preserve" font-family="HelveticaNeue-Medium" font-size="28.0" fill="#EAEAEA" transform="matrix(1.00, 0.00, -0.00, -1.00, 258.0, 470.0)">n</text><text xml:space="preserve" font-family="HelveticaNeue-Medium" font-size="28.0" fill="#EAEAEA" transform="matrix(1.00, 0.00, -0.00, -1.00, 274.1, 470.0)">y</text><text xml:space="preserve" font-family="HelveticaNeue-Medium" font-size="28.0" fill="#EAEAEA" transform="matrix(1.00, 0.00, -0.00, -1.00, 288.6, 470.0)">t</text><text xml:space="preserve" font-family="HelveticaNeue-Medium" font-size="28.0" fill="#EAEAEA" transform="matrix(1.00, 0.00, -0.00, -1.00, 297.9, 470.0)">h</text><text xml:space="preserve" font-family="HelveticaNeue-Medium" font-size="28.0" fill="#EAEAEA" transform="matrix(1.00, 0.00, -0.00, -1.00, 314.0, 470.0)">i</text><text xml:space="preserve" font-family="HelveticaNeue-Medium" font-size="28.0" fill="#EAEAEA" transform="matrix(1.00, 0.00, -0.00, -1.00, 320.8, 470.0)">n</text><text xml:space="preserve" font-family="HelveticaNeue-Medium" font-size="28.0" fill="#EAEAEA" transform="matrix(1.00, 0.00, -0.00, -1.00, 336.8, 470.0)">g</text><text xml:space="preserve" font-family="HelveticaNeue-Medium" font-size="28.0" fill="#EAEAEA" transform="matrix(1.00, 0.00, -0.00, -1.00, 353.4, 470.0)"> </text><text xml:space="preserve" font-family="HelveticaNeue-Medium" font-size="28.0" fill="#EAEAEA" transform="matrix(1.00, 0.00, -0.00, -1.00, 361.2, 470.0)">w</text><text xml:space="preserve" font-family="HelveticaNeue-Medium" font-size="28.0" fill="#EAEAEA" transform="matrix(1.00, 0.00, -0.00, -1.00, 383.0, 470.0)">i</text><text xml:space="preserve" font-family="HelveticaNeue-Medium" font-size="28.0" fill="#EAEAEA" transform="matrix(1.00, 0.00, -0.00, -1.00, 389.8, 470.0)">t</text><text xml:space="preserve" font-family="HelveticaNeue-Medium" font-size="28.0" fill="#EAEAEA" transform="matrix(1.00, 0.00, -0.00, -1.00, 399.1, 470.0)">h</text><text xml:space="preserve" font-family="HelveticaNeue-Medium" font-size="28.0" fill="#EAEAEA" transform="matrix(1.00, 0.00, -0.00, -1.00, 415.2, 470.0)">i</text><text xml:space="preserve" font-family="HelveticaNeue-Medium" font-size="28.0" fill="#EAEAEA" transform="matrix(1.00, 0.00, -0.00, -1.00, 421.9, 470.0)">n</text><text xml:space="preserve" font-family="HelveticaNeue-Medium" font-size="28.0" fill="#EAEAEA" transform="matrix(1.00, 0.00, -0.00, -1.00, 438.0, 470.0)"> </text><text xml:space="preserve" font-family="HelveticaNeue-Medium" font-size="28.0" fill="#EAEAEA" transform="matrix(1.00, 0.00, -0.00, -1.00, 445.8, 470.0)">a</text><text xml:space="preserve" font-family="HelveticaNeue-Medium" font-size="28.0" fill="#EAEAEA" transform="matrix(1.00, 0.00, -0.00, -1.00, 461.3, 470.0)"> </text><image xlink:href="224EF73D597A64505F8E22AD9183A3FD.png" width="222.00" height="29.00" transform="matrix(1.00, 0.00, -0.00, -1.00, 87.0, 458.0)"></image><text xml:space="preserve" font-family="HelveticaNeue-Medium" font-size="28.0" fill="#EAEAEA" transform="matrix(1.00, 0.00, -0.00, -1.00, 91.0, 436.0)">ﬁ</text><text xml:space="preserve" font-family="HelveticaNeue-Medium" font-size="28.0" fill="#EAEAEA" transform="matrix(1.00, 0.00, -0.00, -1.00, 106.6, 436.0)">x</text><text xml:space="preserve" font-family="HelveticaNeue-Medium" font-size="28.0" fill="#EAEAEA" transform="matrix(1.00, 0.00, -0.00, -1.00, 121.6, 436.0)">e</text><text xml:space="preserve" font-family="HelveticaNeue-Medium" font-size="28.0" fill="#EAEAEA" transform="matrix(1.00, 0.00, -0.00, -1.00, 137.2, 436.0)">d</text><text xml:space="preserve" font-family="HelveticaNeue-Medium" font-size="28.0" fill="#EAEAEA" transform="matrix(1.00, 0.00, -0.00, -1.00, 154.3, 436.0)"> </text><text xml:space="preserve" font-family="HelveticaNeue-Medium" font-size="28.0" fill="#EAEAEA" transform="matrix(1.00, 0.00, -0.00, -1.00, 162.1, 436.0)">s</text><text xml:space="preserve" font-family="HelveticaNeue-Medium" font-size="28.0" fill="#EAEAEA" transform="matrix(1.00, 0.00, -0.00, -1.00, 176.6, 436.0)">e</text><text xml:space="preserve" font-family="HelveticaNeue-Medium" font-size="28.0" fill="#EAEAEA" transform="matrix(1.00, 0.00, -0.00, -1.00, 192.2, 436.0)">t</text><text xml:space="preserve" font-family="HelveticaNeue-Medium" font-size="28.0" fill="#EAEAEA" transform="matrix(1.00, 0.00, -0.00, -1.00, 201.5, 436.0)"> </text><text xml:space="preserve" font-family="HelveticaNeue-Medium" font-size="28.0" fill="#EAEAEA" transform="matrix(1.00, 0.00, -0.00, -1.00, 209.3, 436.0)">o</text><text xml:space="preserve" font-family="HelveticaNeue-Medium" font-size="28.0" fill="#EAEAEA" transform="matrix(1.00, 0.00, -0.00, -1.00, 225.9, 436.0)">f</text><text xml:space="preserve" font-family="HelveticaNeue-Medium" font-size="28.0" fill="#EAEAEA" transform="matrix(1.00, 0.00, -0.00, -1.00, 234.7, 436.0)"> </text><text xml:space="preserve" font-family="HelveticaNeue-Medium" font-size="28.0" fill="#EAEAEA" transform="matrix(1.00, 0.00, -0.00, -1.00, 242.5, 436.0)">r</text><text xml:space="preserve" font-family="HelveticaNeue-Medium" font-size="28.0" fill="#EAEAEA" transform="matrix(1.00, 0.00, -0.00, -1.00, 252.3, 436.0)">u</text><text xml:space="preserve" font-family="HelveticaNeue-Medium" font-size="28.0" fill="#EAEAEA" transform="matrix(1.00, 0.00, -0.00, -1.00, 268.4, 436.0)">l</text><text xml:space="preserve" font-family="HelveticaNeue-Medium" font-size="28.0" fill="#EAEAEA" transform="matrix(1.00, 0.00, -0.00, -1.00, 275.2, 436.0)">e</text><text xml:space="preserve" font-family="HelveticaNeue-Medium" font-size="28.0" fill="#EAEAEA" transform="matrix(1.00, 0.00, -0.00, -1.00, 290.7, 436.0)">s</text><text xml:space="preserve" font-family="HelveticaNeue-Medium" font-size="28.0" fill="#EAEAEA" transform="matrix(1.00, 0.00, -0.00, -1.00, 305.3, 436.0)"> </text><image xlink:href="../../74A8C3D1-33A5-4703-9574-FC1DAF0DA2DD/assets/6288F7B1ED39D6885A9D788C82D4013C.png" width="17.00" height="16.00" transform="matrix(1.00, 0.00, -0.00, -1.00, 115.0, 386.0)"></image><text xml:space="preserve" font-family="HelveticaNeue-Medium" font-size="21.0" fill="#EBEAEA" transform="matrix(1.00, 0.00, -0.00, -1.00, 118.0, 372.3)">•</text><image xlink:href="D907072360CB2621A1E31F47069A9FD5.png" width="298.00" height="34.00" transform="matrix(1.00, 0.00, -0.00, -1.00, 142.0, 392.0)"></image><text xml:space="preserve" font-family="HelveticaNeue-Medium" font-size="28.0" fill="#EAEAEA" transform="matrix(1.00, 0.00, -0.00, -1.00, 145.0, 370.0)">i</text><text xml:space="preserve" font-family="HelveticaNeue-Medium" font-size="28.0" fill="#EAEAEA" transform="matrix(1.00, 0.00, -0.00, -1.00, 151.7, 370.0)">.</text><text xml:space="preserve" font-family="HelveticaNeue-Medium" font-size="28.0" fill="#EAEAEA" transform="matrix(1.00, 0.00, -0.00, -1.00, 159.5, 370.0)">e</text><text xml:space="preserve" font-family="HelveticaNeue-Medium" font-size="28.0" fill="#EAEAEA" transform="matrix(1.00, 0.00, -0.00, -1.00, 175.1, 370.0)">.</text><text xml:space="preserve" font-family="HelveticaNeue-Medium" font-size="28.0" fill="#EAEAEA" transform="matrix(1.00, 0.00, -0.00, -1.00, 182.9, 370.0)"> </text><text xml:space="preserve" font-family="HelveticaNeue-Medium" font-size="28.0" fill="#EAEAEA" transform="matrix(1.00, 0.00, -0.00, -1.00, 190.7, 370.0)">s</text><text xml:space="preserve" font-family="HelveticaNeue-Medium" font-size="28.0" fill="#EAEAEA" transform="matrix(1.00, 0.00, -0.00, -1.00, 205.2, 370.0)">y</text><text xml:space="preserve" font-family="HelveticaNeue-Medium" font-size="28.0" fill="#EAEAEA" transform="matrix(1.00, 0.00, -0.00, -1.00, 219.7, 370.0)">m</text><text xml:space="preserve" font-family="HelveticaNeue-Medium" font-size="28.0" fill="#EAEAEA" transform="matrix(1.00, 0.00, -0.00, -1.00, 244.1, 370.0)">b</text><text xml:space="preserve" font-family="HelveticaNeue-Medium" font-size="28.0" fill="#EAEAEA" transform="matrix(1.00, 0.00, -0.00, -1.00, 261.2, 370.0)">o</text><text xml:space="preserve" font-family="HelveticaNeue-Medium" font-size="28.0" fill="#EAEAEA" transform="matrix(1.00, 0.00, -0.00, -1.00, 277.8, 370.0)">l</text><text xml:space="preserve" font-family="HelveticaNeue-Medium" font-size="28.0" fill="#EAEAEA" transform="matrix(1.00, 0.00, -0.00, -1.00, 284.6, 370.0)">s</text><text xml:space="preserve" font-family="HelveticaNeue-Medium" font-size="28.0" fill="#EAEAEA" transform="matrix(1.00, 0.00, -0.00, -1.00, 299.1, 370.0)"> </text><text xml:space="preserve" font-family="HelveticaNeue-Medium" font-size="28.0" fill="#EAEAEA" transform="matrix(1.00, 0.00, -0.00, -1.00, 306.9, 370.0)">i</text><text xml:space="preserve" font-family="HelveticaNeue-Medium" font-size="28.0" fill="#EAEAEA" transform="matrix(1.00, 0.00, -0.00, -1.00, 313.6, 370.0)">n</text><text xml:space="preserve" font-family="HelveticaNeue-Medium" font-size="28.0" fill="#EAEAEA" transform="matrix(1.00, 0.00, -0.00, -1.00, 329.7, 370.0)">s</text><text xml:space="preserve" font-family="HelveticaNeue-Medium" font-size="28.0" fill="#EAEAEA" transform="matrix(1.00, 0.00, -0.00, -1.00, 344.2, 370.0)">t</text><text xml:space="preserve" font-family="HelveticaNeue-Medium" font-size="28.0" fill="#EAEAEA" transform="matrix(1.00, 0.00, -0.00, -1.00, 353.5, 370.0)">e</text><text xml:space="preserve" font-family="HelveticaNeue-Medium" font-size="28.0" fill="#EAEAEA" transform="matrix(1.00, 0.00, -0.00, -1.00, 369.1, 370.0)">a</text><text xml:space="preserve" font-family="HelveticaNeue-Medium" font-size="28.0" fill="#EAEAEA" transform="matrix(1.00, 0.00, -0.00, -1.00, 384.7, 370.0)">d</text><text xml:space="preserve" font-family="HelveticaNeue-Medium" font-size="28.0" fill="#EAEAEA" transform="matrix(1.00, 0.00, -0.00, -1.00, 401.8, 370.0)"> </text><text xml:space="preserve" font-family="HelveticaNeue-Medium" font-size="28.0" fill="#EAEAEA" transform="matrix(1.00, 0.00, -0.00, -1.00, 409.6, 370.0)">o</text><text xml:space="preserve" font-family="HelveticaNeue-Medium" font-size="28.0" fill="#EAEAEA" transform="matrix(1.00, 0.00, -0.00, -1.00, 426.2, 370.0)">f</text><text xml:space="preserve" font-family="HelveticaNeue-Medium" font-size="28.0" fill="#EAEAEA" transform="matrix(1.00, 0.00, -0.00, -1.00, 435.0, 370.0)"> </text><image xlink:href="EC6E3BEF6AE5C55DE47E2AC32A26C715.png" width="177.00" height="34.00" transform="matrix(1.00, 0.00, -0.00, -1.00, 140.0, 358.0)"></image><text xml:space="preserve" font-family="HelveticaNeue-Medium" font-size="28.0" fill="#EAEAEA" transform="matrix(1.00, 0.00, -0.00, -1.00, 145.0, 336.0)">j</text><text xml:space="preserve" font-family="HelveticaNeue-Medium" font-size="28.0" fill="#EAEAEA" transform="matrix(1.00, 0.00, -0.00, -1.00, 151.7, 336.0)">u</text><text xml:space="preserve" font-family="HelveticaNeue-Medium" font-size="28.0" fill="#EAEAEA" transform="matrix(1.00, 0.00, -0.00, -1.00, 167.8, 336.0)">s</text><text xml:space="preserve" font-family="HelveticaNeue-Medium" font-size="28.0" fill="#EAEAEA" transform="matrix(1.00, 0.00, -0.00, -1.00, 182.4, 336.0)">t</text><text xml:space="preserve" font-family="HelveticaNeue-Medium" font-size="28.0" fill="#EAEAEA" transform="matrix(1.00, 0.00, -0.00, -1.00, 191.7, 336.0)"> </text><text xml:space="preserve" font-family="HelveticaNeue-Medium" font-size="28.0" fill="#EAEAEA" transform="matrix(1.00, 0.00, -0.00, -1.00, 199.5, 336.0)">n</text><text xml:space="preserve" font-family="HelveticaNeue-Medium" font-size="28.0" fill="#EAEAEA" transform="matrix(1.00, 0.00, -0.00, -1.00, 215.5, 336.0)">u</text><text xml:space="preserve" font-family="HelveticaNeue-Medium" font-size="28.0" fill="#EAEAEA" transform="matrix(1.00, 0.00, -0.00, -1.00, 231.6, 336.0)">m</text><text xml:space="preserve" font-family="HelveticaNeue-Medium" font-size="28.0" fill="#EAEAEA" transform="matrix(1.00, 0.00, -0.00, -1.00, 256.0, 336.0)">b</text><text xml:space="preserve" font-family="HelveticaNeue-Medium" font-size="28.0" fill="#EAEAEA" transform="matrix(1.00, 0.00, -0.00, -1.00, 273.1, 336.0)">e</text><text xml:space="preserve" font-family="HelveticaNeue-Medium" font-size="28.0" fill="#EAEAEA" transform="matrix(1.00, 0.00, -0.00, -1.00, 288.6, 336.0)">r</text><text xml:space="preserve" font-family="HelveticaNeue-Medium" font-size="28.0" fill="#EAEAEA" transform="matrix(1.00, 0.00, -0.00, -1.00, 298.5, 336.0)">s</text><text xml:space="preserve" font-family="HelveticaNeue-Medium" font-size="28.0" fill="#EAEAEA" transform="matrix(1.00, 0.00, -0.00, -1.00, 313.0, 336.0)"> </text><image xlink:href="../../74A8C3D1-33A5-4703-9574-FC1DAF0DA2DD/assets/6288F7B1ED39D6885A9D788C82D4013C.png" width="17.00" height="16.00" transform="matrix(1.00, 0.00, -0.00, -1.00, 61.0, 286.0)"></image><text xml:space="preserve" font-family="HelveticaNeue-Medium" font-size="21.0" fill="#EBEAEA" transform="matrix(1.00, 0.00, -0.00, -1.00, 64.0, 272.3)">•</text><image xlink:href="EF7AF3C73E9661315F7E99C1B97E95B6.png" width="359.00" height="34.00" transform="matrix(1.00, 0.00, -0.00, -1.00, 88.0, 292.0)"></image><text xml:space="preserve" font-family="HelveticaNeue-Medium" font-size="28.0" fill="#EAEAEA" transform="matrix(1.00, 0.00, -0.00, -1.00, 91.0, 270.0)">U</text><text xml:space="preserve" font-family="HelveticaNeue-Medium" font-size="28.0" fill="#EAEAEA" transform="matrix(1.00, 0.00, -0.00, -1.00, 111.2, 270.0)">s</text><text xml:space="preserve" font-family="HelveticaNeue-Medium" font-size="28.0" fill="#EAEAEA" transform="matrix(1.00, 0.00, -0.00, -1.00, 125.7, 270.0)">e</text><text xml:space="preserve" font-family="HelveticaNeue-Medium" font-size="28.0" fill="#EAEAEA" transform="matrix(1.00, 0.00, -0.00, -1.00, 141.3, 270.0)">d</text><text xml:space="preserve" font-family="HelveticaNeue-Medium" font-size="28.0" fill="#EAEAEA" transform="matrix(1.00, 0.00, -0.00, -1.00, 158.4, 270.0)"> </text><text xml:space="preserve" font-family="HelveticaNeue-Medium" font-size="28.0" fill="#EAEAEA" transform="matrix(1.00, 0.00, -0.00, -1.00, 166.2, 270.0)">f</text><text xml:space="preserve" font-family="HelveticaNeue-Medium" font-size="28.0" fill="#EAEAEA" transform="matrix(1.00, 0.00, -0.00, -1.00, 175.0, 270.0)">o</text><text xml:space="preserve" font-family="HelveticaNeue-Medium" font-size="28.0" fill="#EAEAEA" transform="matrix(1.00, 0.00, -0.00, -1.00, 191.6, 270.0)">r</text><text xml:space="preserve" font-family="HelveticaNeue-Medium" font-size="28.0" fill="#EAEAEA" transform="matrix(1.00, 0.00, -0.00, -1.00, 201.5, 270.0)"> </text><text xml:space="preserve" font-family="HelveticaNeue-Medium" font-size="28.0" fill="#EAEAEA" transform="matrix(1.00, 0.00, -0.00, -1.00, 209.3, 270.0)">b</text><text xml:space="preserve" font-family="HelveticaNeue-Medium" font-size="28.0" fill="#EAEAEA" transform="matrix(1.00, 0.00, -0.00, -1.00, 226.4, 270.0)">o</text><text xml:space="preserve" font-family="HelveticaNeue-Medium" font-size="28.0" fill="#EAEAEA" transform="matrix(1.00, 0.00, -0.00, -1.00, 243.0, 270.0)">t</text><text xml:space="preserve" font-family="HelveticaNeue-Medium" font-size="28.0" fill="#EAEAEA" transform="matrix(1.00, 0.00, -0.00, -1.00, 252.3, 270.0)">h</text><text xml:space="preserve" font-family="HelveticaNeue-Medium" font-size="28.0" fill="#EAEAEA" transform="matrix(1.00, 0.00, -0.00, -1.00, 268.4, 270.0)"> </text><text xml:space="preserve" font-family="HelveticaNeue-Medium" font-size="28.0" fill="#EAEAEA" transform="matrix(1.00, 0.00, -0.00, -1.00, 276.2, 270.0)">p</text><text xml:space="preserve" font-family="HelveticaNeue-Medium" font-size="28.0" fill="#EAEAEA" transform="matrix(1.00, 0.00, -0.00, -1.00, 293.3, 270.0)">r</text><text xml:space="preserve" font-family="HelveticaNeue-Medium" font-size="28.0" fill="#EAEAEA" transform="matrix(1.00, 0.00, -0.00, -1.00, 303.1, 270.0)">a</text><text xml:space="preserve" font-family="HelveticaNeue-Medium" font-size="28.0" fill="#EAEAEA" transform="matrix(1.00, 0.00, -0.00, -1.00, 318.7, 270.0)">c</text><text xml:space="preserve" font-family="HelveticaNeue-Medium" font-size="28.0" fill="#EAEAEA" transform="matrix(1.00, 0.00, -0.00, -1.00, 334.3, 270.0)">t</text><text xml:space="preserve" font-family="HelveticaNeue-Medium" font-size="28.0" fill="#EAEAEA" transform="matrix(1.00, 0.00, -0.00, -1.00, 343.6, 270.0)">i</text><text xml:space="preserve" font-family="HelveticaNeue-Medium" font-size="28.0" fill="#EAEAEA" transform="matrix(1.00, 0.00, -0.00, -1.00, 350.3, 270.0)">c</text><text xml:space="preserve" font-family="HelveticaNeue-Medium" font-size="28.0" fill="#EAEAEA" transform="matrix(1.00, 0.00, -0.00, -1.00, 365.9, 270.0)">a</text><text xml:space="preserve" font-family="HelveticaNeue-Medium" font-size="28.0" fill="#EAEAEA" transform="matrix(1.00, 0.00, -0.00, -1.00, 381.5, 270.0)">l</text><text xml:space="preserve" font-family="HelveticaNeue-Medium" font-size="28.0" fill="#EAEAEA" transform="matrix(1.00, 0.00, -0.00, -1.00, 388.2, 270.0)"> </text><text xml:space="preserve" font-family="HelveticaNeue-Medium" font-size="28.0" fill="#EAEAEA" transform="matrix(1.00, 0.00, -0.00, -1.00, 396.0, 270.0)">a</text><text xml:space="preserve" font-family="HelveticaNeue-Medium" font-size="28.0" fill="#EAEAEA" transform="matrix(1.00, 0.00, -0.00, -1.00, 411.6, 270.0)">n</text><text xml:space="preserve" font-family="HelveticaNeue-Medium" font-size="28.0" fill="#EAEAEA" transform="matrix(1.00, 0.00, -0.00, -1.00, 427.6, 270.0)">d</text><text xml:space="preserve" font-family="HelveticaNeue-Medium" font-size="28.0" fill="#EAEAEA" transform="matrix(1.00, 0.00, -0.00, -1.00, 444.8, 270.0)"> </text><image xlink:href="57D93380C0B1974D88D8BB22091D647D.png" width="253.00" height="34.00" transform="matrix(1.00, 0.00, -0.00, -1.00, 87.0, 258.0)"></image><text xml:space="preserve" font-family="HelveticaNeue-Medium" font-size="28.0" fill="#EAEAEA" transform="matrix(1.00, 0.00, -0.00, -1.00, 91.0, 236.0)">s</text><text xml:space="preserve" font-family="HelveticaNeue-Medium" font-size="28.0" fill="#EAEAEA" transform="matrix(1.00, 0.00, -0.00, -1.00, 105.5, 236.0)">c</text><text xml:space="preserve" font-family="HelveticaNeue-Medium" font-size="28.0" fill="#EAEAEA" transform="matrix(1.00, 0.00, -0.00, -1.00, 121.1, 236.0)">i</text><text xml:space="preserve" font-family="HelveticaNeue-Medium" font-size="28.0" fill="#EAEAEA" transform="matrix(1.00, 0.00, -0.00, -1.00, 127.8, 236.0)">e</text><text xml:space="preserve" font-family="HelveticaNeue-Medium" font-size="28.0" fill="#EAEAEA" transform="matrix(1.00, 0.00, -0.00, -1.00, 143.4, 236.0)">n</text><text xml:space="preserve" font-family="HelveticaNeue-Medium" font-size="28.0" fill="#EAEAEA" transform="matrix(1.00, 0.00, -0.00, -1.00, 159.5, 236.0)">t</text><text xml:space="preserve" font-family="HelveticaNeue-Medium" font-size="28.0" fill="#EAEAEA" transform="matrix(1.00, 0.00, -0.00, -1.00, 168.8, 236.0)">i</text><text xml:space="preserve" font-family="HelveticaNeue-Medium" font-size="28.0" fill="#EAEAEA" transform="matrix(1.00, 0.00, -0.00, -1.00, 175.6, 236.0)">ﬁ</text><text xml:space="preserve" font-family="HelveticaNeue-Medium" font-size="28.0" fill="#EAEAEA" transform="matrix(1.00, 0.00, -0.00, -1.00, 191.1, 236.0)">c</text><text xml:space="preserve" font-family="HelveticaNeue-Medium" font-size="28.0" fill="#EAEAEA" transform="matrix(1.00, 0.00, -0.00, -1.00, 206.7, 236.0)"> </text><text xml:space="preserve" font-family="HelveticaNeue-Medium" font-size="28.0" fill="#EAEAEA" transform="matrix(1.00, 0.00, -0.00, -1.00, 214.5, 236.0)">p</text><text xml:space="preserve" font-family="HelveticaNeue-Medium" font-size="28.0" fill="#EAEAEA" transform="matrix(1.00, 0.00, -0.00, -1.00, 231.6, 236.0)">u</text><text xml:space="preserve" font-family="HelveticaNeue-Medium" font-size="28.0" fill="#EAEAEA" transform="matrix(1.00, 0.00, -0.00, -1.00, 247.7, 236.0)">r</text><text xml:space="preserve" font-family="HelveticaNeue-Medium" font-size="28.0" fill="#EAEAEA" transform="matrix(1.00, 0.00, -0.00, -1.00, 257.5, 236.0)">p</text><text xml:space="preserve" font-family="HelveticaNeue-Medium" font-size="28.0" fill="#EAEAEA" transform="matrix(1.00, 0.00, -0.00, -1.00, 274.6, 236.0)">o</text><text xml:space="preserve" font-family="HelveticaNeue-Medium" font-size="28.0" fill="#EAEAEA" transform="matrix(1.00, 0.00, -0.00, -1.00, 291.2, 236.0)">s</text><text xml:space="preserve" font-family="HelveticaNeue-Medium" font-size="28.0" fill="#EAEAEA" transform="matrix(1.00, 0.00, -0.00, -1.00, 305.8, 236.0)">e</text><text xml:space="preserve" font-family="HelveticaNeue-Medium" font-size="28.0" fill="#EAEAEA" transform="matrix(1.00, 0.00, -0.00, -1.00, 321.3, 236.0)">s</text><text xml:space="preserve" font-family="HelveticaNeue-Medium" font-size="28.0" fill="#EAEAEA" transform="matrix(1.00, 0.00, -0.00, -1.00, 335.9, 236.0)"> </text><image xlink:href="../../74A8C3D1-33A5-4703-9574-FC1DAF0DA2DD/assets/6288F7B1ED39D6885A9D788C82D4013C.png" width="17.00" height="16.00" transform="matrix(1.00, 0.00, -0.00, -1.00, 61.0, 186.0)"></image><text xml:space="preserve" font-family="HelveticaNeue-Medium" font-size="21.0" fill="#EBEAEA" transform="matrix(1.00, 0.00, -0.00, -1.00, 64.0, 172.3)">•</text><image xlink:href="467CC3DE458BEFD7EFCF25328CA2820E.png" width="377.00" height="35.00" transform="matrix(1.00, 0.00, -0.00, -1.00, 88.0, 193.0)"></image><text xml:space="preserve" font-family="HelveticaNeue-Medium" font-size="28.0" fill="#EAEAEA" transform="matrix(1.00, 0.00, -0.00, -1.00, 91.0, 170.0)">C</text><text xml:space="preserve" font-family="HelveticaNeue-Medium" font-size="28.0" fill="#EAEAEA" transform="matrix(1.00, 0.00, -0.00, -1.00, 111.2, 170.0)">o</text><text xml:space="preserve" font-family="HelveticaNeue-Medium" font-size="28.0" fill="#EAEAEA" transform="matrix(1.00, 0.00, -0.00, -1.00, 127.8, 170.0)">m</text><text xml:space="preserve" font-family="HelveticaNeue-Medium" font-size="28.0" fill="#EAEAEA" transform="matrix(1.00, 0.00, -0.00, -1.00, 152.2, 170.0)">p</text><text xml:space="preserve" font-family="HelveticaNeue-Medium" font-size="28.0" fill="#EAEAEA" transform="matrix(1.00, 0.00, -0.00, -1.00, 169.3, 170.0)">o</text><text xml:space="preserve" font-family="HelveticaNeue-Medium" font-size="28.0" fill="#EAEAEA" transform="matrix(1.00, 0.00, -0.00, -1.00, 185.9, 170.0)">s</text><text xml:space="preserve" font-family="HelveticaNeue-Medium" font-size="28.0" fill="#EAEAEA" transform="matrix(1.00, 0.00, -0.00, -1.00, 200.4, 170.0)">e</text><text xml:space="preserve" font-family="HelveticaNeue-Medium" font-size="28.0" fill="#EAEAEA" transform="matrix(1.00, 0.00, -0.00, -1.00, 216.0, 170.0)"> </text><text xml:space="preserve" font-family="HelveticaNeue-Medium" font-size="28.0" fill="#EAEAEA" transform="matrix(1.00, 0.00, -0.00, -1.00, 223.8, 170.0)">c</text><text xml:space="preserve" font-family="HelveticaNeue-Medium" font-size="28.0" fill="#EAEAEA" transform="matrix(1.00, 0.00, -0.00, -1.00, 239.3, 170.0)">o</text><text xml:space="preserve" font-family="HelveticaNeue-Medium" font-size="28.0" fill="#EAEAEA" transform="matrix(1.00, 0.00, -0.00, -1.00, 255.9, 170.0)">m</text><text xml:space="preserve" font-family="HelveticaNeue-Medium" font-size="28.0" fill="#EAEAEA" transform="matrix(1.00, 0.00, -0.00, -1.00, 280.3, 170.0)">p</text><text xml:space="preserve" font-family="HelveticaNeue-Medium" font-size="28.0" fill="#EAEAEA" transform="matrix(1.00, 0.00, -0.00, -1.00, 297.4, 170.0)">l</text><text xml:space="preserve" font-family="HelveticaNeue-Medium" font-size="28.0" fill="#EAEAEA" transform="matrix(1.00, 0.00, -0.00, -1.00, 304.2, 170.0)">e</text><text xml:space="preserve" font-family="HelveticaNeue-Medium" font-size="28.0" fill="#EAEAEA" transform="matrix(1.00, 0.00, -0.00, -1.00, 319.7, 170.0)">x</text><text xml:space="preserve" font-family="HelveticaNeue-Medium" font-size="28.0" fill="#EAEAEA" transform="matrix(1.00, 0.00, -0.00, -1.00, 334.8, 170.0)"> </text><text xml:space="preserve" font-family="HelveticaNeue-Medium" font-size="28.0" fill="#EAEAEA" transform="matrix(1.00, 0.00, -0.00, -1.00, 342.6, 170.0)">p</text><text xml:space="preserve" font-family="HelveticaNeue-Medium" font-size="28.0" fill="#EAEAEA" transform="matrix(1.00, 0.00, -0.00, -1.00, 359.7, 170.0)">i</text><text xml:space="preserve" font-family="HelveticaNeue-Medium" font-size="28.0" fill="#EAEAEA" transform="matrix(1.00, 0.00, -0.00, -1.00, 366.4, 170.0)">e</text><text xml:space="preserve" font-family="HelveticaNeue-Medium" font-size="28.0" fill="#EAEAEA" transform="matrix(1.00, 0.00, -0.00, -1.00, 382.0, 170.0)">c</text><text xml:space="preserve" font-family="HelveticaNeue-Medium" font-size="28.0" fill="#EAEAEA" transform="matrix(1.00, 0.00, -0.00, -1.00, 397.5, 170.0)">e</text><text xml:space="preserve" font-family="HelveticaNeue-Medium" font-size="28.0" fill="#EAEAEA" transform="matrix(1.00, 0.00, -0.00, -1.00, 413.1, 170.0)">s</text><text xml:space="preserve" font-family="HelveticaNeue-Medium" font-size="28.0" fill="#EAEAEA" transform="matrix(1.00, 0.00, -0.00, -1.00, 427.6, 170.0)"> </text><text xml:space="preserve" font-family="HelveticaNeue-Medium" font-size="28.0" fill="#EAEAEA" transform="matrix(1.00, 0.00, -0.00, -1.00, 435.4, 170.0)">o</text><text xml:space="preserve" font-family="HelveticaNeue-Medium" font-size="28.0" fill="#EAEAEA" transform="matrix(1.00, 0.00, -0.00, -1.00, 452.0, 170.0)">f</text><text xml:space="preserve" font-family="HelveticaNeue-Medium" font-size="28.0" fill="#EAEAEA" transform="matrix(1.00, 0.00, -0.00, -1.00, 460.9, 170.0)"> </text><image xlink:href="F75B41257E6ECEC1F3ECB9EF617A85D0.png" width="84.00" height="29.00" transform="matrix(1.00, 0.00, -0.00, -1.00, 88.0, 158.0)"></image><text xml:space="preserve" font-family="HelveticaNeue-Medium" font-size="28.0" fill="#EAEAEA" transform="matrix(1.00, 0.00, -0.00, -1.00, 91.0, 136.0)">m</text><text xml:space="preserve" font-family="HelveticaNeue-Medium" font-size="28.0" fill="#EAEAEA" transform="matrix(1.00, 0.00, -0.00, -1.00, 115.4, 136.0)">u</text><text xml:space="preserve" font-family="HelveticaNeue-Medium" font-size="28.0" fill="#EAEAEA" transform="matrix(1.00, 0.00, -0.00, -1.00, 131.4, 136.0)">s</text><text xml:space="preserve" font-family="HelveticaNeue-Medium" font-size="28.0" fill="#EAEAEA" transform="matrix(1.00, 0.00, -0.00, -1.00, 146.0, 136.0)">i</text><text xml:space="preserve" font-family="HelveticaNeue-Medium" font-size="28.0" fill="#EAEAEA" transform="matrix(1.00, 0.00, -0.00, -1.00, 152.7, 136.0)">c</text></g></svg>